<svg width="15" height="15" viewBox="0 0 15 15" fill="none" xmlns="http://www.w3.org/2000/svg">
<g clip-path="url(#clip0_1476_148)">
<path fill-rule="evenodd" clip-rule="evenodd" d="M5.46375 9.53625C5.37585 9.44837 5.25664 9.39901 5.13234 9.39901C5.00805 9.39901 4.88884 9.44837 4.80094 9.53625L0.960938 13.3763V10.7812C0.960938 10.6569 0.911551 10.5377 0.823644 10.4498C0.735736 10.3619 0.616508 10.3125 0.492187 10.3125C0.367867 10.3125 0.248639 10.3619 0.160731 10.4498C0.0728235 10.5377 0.0234375 10.6569 0.0234375 10.7812V14.5078C0.0234375 14.6321 0.0728235 14.7514 0.160731 14.8393C0.248639 14.9272 0.367867 14.9766 0.492187 14.9766H4.21875C4.34307 14.9766 4.4623 14.9272 4.55021 14.8393C4.63811 14.7514 4.6875 14.6321 4.6875 14.5078C4.6875 14.3835 4.63811 14.2643 4.55021 14.1764C4.4623 14.0884 4.34307 14.0391 4.21875 14.0391H1.62375L5.46375 10.1991C5.55163 10.1112 5.60099 9.99195 5.60099 9.86766C5.60099 9.74336 5.55163 9.62415 5.46375 9.53625ZM9.53625 9.53625C9.62415 9.44837 9.74336 9.39901 9.86766 9.39901C9.99195 9.39901 10.1112 9.44837 10.1991 9.53625L14.0391 13.3763V10.7812C14.0391 10.6569 14.0884 10.5377 14.1764 10.4498C14.2643 10.3619 14.3835 10.3125 14.5078 10.3125C14.6321 10.3125 14.7514 10.3619 14.8393 10.4498C14.9272 10.5377 14.9766 10.6569 14.9766 10.7812V14.5078C14.9766 14.6321 14.9272 14.7514 14.8393 14.8393C14.7514 14.9272 14.6321 14.9766 14.5078 14.9766H10.7812C10.6569 14.9766 10.5377 14.9272 10.4498 14.8393C10.3619 14.7514 10.3125 14.6321 10.3125 14.5078C10.3125 14.3835 10.3619 14.2643 10.4498 14.1764C10.5377 14.0884 10.6569 14.0391 10.7812 14.0391H13.3763L9.53625 10.1991C9.44837 10.1112 9.39901 9.99195 9.39901 9.86766C9.39901 9.74336 9.44837 9.62415 9.53625 9.53625ZM9.53625 5.46375C9.62415 5.55163 9.74336 5.60099 9.86766 5.60099C9.99195 5.60099 10.1112 5.55163 10.1991 5.46375L14.0391 1.62375V4.21875C14.0391 4.34307 14.0884 4.4623 14.1764 4.55021C14.2643 4.63811 14.3835 4.6875 14.5078 4.6875C14.6321 4.6875 14.7514 4.63811 14.8393 4.55021C14.9272 4.4623 14.9766 4.34307 14.9766 4.21875V0.492187C14.9766 0.367867 14.9272 0.248639 14.8393 0.160731C14.7514 0.0728235 14.6321 0.0234375 14.5078 0.0234375H10.7812C10.6569 0.0234375 10.5377 0.0728235 10.4498 0.160731C10.3619 0.248639 10.3125 0.367867 10.3125 0.492187C10.3125 0.616508 10.3619 0.735736 10.4498 0.823644C10.5377 0.911551 10.6569 0.960938 10.7812 0.960938H13.3763L9.53625 4.80094C9.44837 4.88884 9.39901 5.00805 9.39901 5.13234C9.39901 5.25664 9.44837 5.37585 9.53625 5.46375ZM5.46375 5.46375C5.37585 5.55163 5.25664 5.60099 5.13234 5.60099C5.00805 5.60099 4.88884 5.55163 4.80094 5.46375L0.960938 1.62375V4.21875C0.960938 4.34307 0.911551 4.4623 0.823644 4.55021C0.735736 4.63811 0.616508 4.6875 0.492187 4.6875C0.367867 4.6875 0.248639 4.63811 0.160731 4.55021C0.0728235 4.4623 0.0234375 4.34307 0.0234375 4.21875V0.492187C0.0234375 0.367867 0.0728235 0.248639 0.160731 0.160731C0.248639 0.0728235 0.367867 0.0234375 0.492187 0.0234375H4.21875C4.34307 0.0234375 4.4623 0.0728235 4.55021 0.160731C4.63811 0.248639 4.6875 0.367867 4.6875 0.492187C4.6875 0.616508 4.63811 0.735736 4.55021 0.823644C4.4623 0.911551 4.34307 0.960938 4.21875 0.960938H1.62375L5.46375 4.80094C5.55163 4.88884 5.60099 5.00805 5.60099 5.13234C5.60099 5.25664 5.55163 5.37585 5.46375 5.46375Z" fill="url(#paint0_linear_1476_148)"/>
</g>
<defs>
<linearGradient id="paint0_linear_1476_148" x1="7.5" y1="0.0234375" x2="7.5" y2="14.9766" gradientUnits="userSpaceOnUse">
<stop stop-color="#5A8FFF"/>
<stop offset="1" stop-color="#003094"/>
</linearGradient>
<clipPath id="clip0_1476_148">
<rect width="15" height="15" fill="white"/>
</clipPath>
</defs>
</svg>
