<svg width="16" height="15" viewBox="0 0 16 15" fill="none" xmlns="http://www.w3.org/2000/svg">
<path d="M13.1679 0H1.88113C1.38222 0 0.903749 0.197544 0.55097 0.549175C0.19819 0.900806 0 1.37772 0 1.875L0 13.125C0 13.6223 0.19819 14.0992 0.55097 14.4508C0.903749 14.8025 1.38222 15 1.88113 15H13.1679C13.6668 15 14.1453 14.8025 14.498 14.4508C14.8508 14.0992 15.049 13.6223 15.049 13.125V1.875C15.049 1.37772 14.8508 0.900806 14.498 0.549175C14.1453 0.197544 13.6668 0 13.1679 0V0ZM0.940564 3.61594C0.940564 3.1725 1.36194 2.8125 1.88113 2.8125H13.1679C13.6871 2.8125 14.1085 3.1725 14.1085 3.61594V13.2591C14.1085 13.7025 13.6871 14.0625 13.1679 14.0625H1.88113C1.36194 14.0625 0.940564 13.7025 0.940564 13.2591V3.61594Z" fill="url(#paint0_linear_1476_188)"/>
<path d="M6.11382 6.5625C6.36327 6.5625 6.60251 6.46373 6.7789 6.28791C6.95529 6.1121 7.05438 5.87364 7.05438 5.625C7.05438 5.37636 6.95529 5.1379 6.7789 4.96209C6.60251 4.78627 6.36327 4.6875 6.11382 4.6875C5.86436 4.6875 5.62513 4.78627 5.44874 4.96209C5.27235 5.1379 5.17325 5.37636 5.17325 5.625C5.17325 5.87364 5.27235 6.1121 5.44874 6.28791C5.62513 6.46373 5.86436 6.5625 6.11382 6.5625ZM8.93551 6.5625C9.18496 6.5625 9.4242 6.46373 9.60059 6.28791C9.77698 6.1121 9.87607 5.87364 9.87607 5.625C9.87607 5.37636 9.77698 5.1379 9.60059 4.96209C9.4242 4.78627 9.18496 4.6875 8.93551 4.6875C8.68606 4.6875 8.44682 4.78627 8.27043 4.96209C8.09404 5.1379 7.99494 5.37636 7.99494 5.625C7.99494 5.87364 8.09404 6.1121 8.27043 6.28791C8.44682 6.46373 8.68606 6.5625 8.93551 6.5625V6.5625ZM11.7572 6.5625C12.0067 6.5625 12.2459 6.46373 12.4223 6.28791C12.5987 6.1121 12.6978 5.87364 12.6978 5.625C12.6978 5.37636 12.5987 5.1379 12.4223 4.96209C12.2459 4.78627 12.0067 4.6875 11.7572 4.6875C11.5077 4.6875 11.2685 4.78627 11.0921 4.96209C10.9157 5.1379 10.8166 5.37636 10.8166 5.625C10.8166 5.87364 10.9157 6.1121 11.0921 6.28791C11.2685 6.46373 11.5077 6.5625 11.7572 6.5625V6.5625ZM3.29213 9.375C3.54158 9.375 3.78082 9.27623 3.95721 9.10041C4.13359 8.9246 4.23269 8.68614 4.23269 8.4375C4.23269 8.18886 4.13359 7.9504 3.95721 7.77459C3.78082 7.59877 3.54158 7.5 3.29213 7.5C3.04267 7.5 2.80344 7.59877 2.62705 7.77459C2.45066 7.9504 2.35156 8.18886 2.35156 8.4375C2.35156 8.68614 2.45066 8.9246 2.62705 9.10041C2.80344 9.27623 3.04267 9.375 3.29213 9.375V9.375ZM6.11382 9.375C6.36327 9.375 6.60251 9.27623 6.7789 9.10041C6.95529 8.9246 7.05438 8.68614 7.05438 8.4375C7.05438 8.18886 6.95529 7.9504 6.7789 7.77459C6.60251 7.59877 6.36327 7.5 6.11382 7.5C5.86436 7.5 5.62513 7.59877 5.44874 7.77459C5.27235 7.9504 5.17325 8.18886 5.17325 8.4375C5.17325 8.68614 5.27235 8.9246 5.44874 9.10041C5.62513 9.27623 5.86436 9.375 6.11382 9.375ZM8.93551 9.375C9.18496 9.375 9.4242 9.27623 9.60059 9.10041C9.77698 8.9246 9.87607 8.68614 9.87607 8.4375C9.87607 8.18886 9.77698 7.9504 9.60059 7.77459C9.4242 7.59877 9.18496 7.5 8.93551 7.5C8.68606 7.5 8.44682 7.59877 8.27043 7.77459C8.09404 7.9504 7.99494 8.18886 7.99494 8.4375C7.99494 8.68614 8.09404 8.9246 8.27043 9.10041C8.44682 9.27623 8.68606 9.375 8.93551 9.375V9.375ZM11.7572 9.375C12.0067 9.375 12.2459 9.27623 12.4223 9.10041C12.5987 8.9246 12.6978 8.68614 12.6978 8.4375C12.6978 8.18886 12.5987 7.9504 12.4223 7.77459C12.2459 7.59877 12.0067 7.5 11.7572 7.5C11.5077 7.5 11.2685 7.59877 11.0921 7.77459C10.9157 7.9504 10.8166 8.18886 10.8166 8.4375C10.8166 8.68614 10.9157 8.9246 11.0921 9.10041C11.2685 9.27623 11.5077 9.375 11.7572 9.375V9.375ZM3.29213 12.1875C3.54158 12.1875 3.78082 12.0887 3.95721 11.9129C4.13359 11.7371 4.23269 11.4986 4.23269 11.25C4.23269 11.0014 4.13359 10.7629 3.95721 10.5871C3.78082 10.4113 3.54158 10.3125 3.29213 10.3125C3.04267 10.3125 2.80344 10.4113 2.62705 10.5871C2.45066 10.7629 2.35156 11.0014 2.35156 11.25C2.35156 11.4986 2.45066 11.7371 2.62705 11.9129C2.80344 12.0887 3.04267 12.1875 3.29213 12.1875V12.1875ZM6.11382 12.1875C6.36327 12.1875 6.60251 12.0887 6.7789 11.9129C6.95529 11.7371 7.05438 11.4986 7.05438 11.25C7.05438 11.0014 6.95529 10.7629 6.7789 10.5871C6.60251 10.4113 6.36327 10.3125 6.11382 10.3125C5.86436 10.3125 5.62513 10.4113 5.44874 10.5871C5.27235 10.7629 5.17325 11.0014 5.17325 11.25C5.17325 11.4986 5.27235 11.7371 5.44874 11.9129C5.62513 12.0887 5.86436 12.1875 6.11382 12.1875ZM8.93551 12.1875C9.18496 12.1875 9.4242 12.0887 9.60059 11.9129C9.77698 11.7371 9.87607 11.4986 9.87607 11.25C9.87607 11.0014 9.77698 10.7629 9.60059 10.5871C9.4242 10.4113 9.18496 10.3125 8.93551 10.3125C8.68606 10.3125 8.44682 10.4113 8.27043 10.5871C8.09404 10.7629 7.99494 11.0014 7.99494 11.25C7.99494 11.4986 8.09404 11.7371 8.27043 11.9129C8.44682 12.0887 8.68606 12.1875 8.93551 12.1875V12.1875Z" fill="url(#paint1_linear_1476_188)"/>
<defs>
<linearGradient id="paint0_linear_1476_188" x1="7.52451" y1="0" x2="7.52451" y2="15" gradientUnits="userSpaceOnUse">
<stop stop-color="#5A8FFF"/>
<stop offset="1" stop-color="#003094"/>
</linearGradient>
<linearGradient id="paint1_linear_1476_188" x1="7.52466" y1="4.6875" x2="7.52466" y2="12.1875" gradientUnits="userSpaceOnUse">
<stop stop-color="#5A8FFF"/>
<stop offset="1" stop-color="#003094"/>
</linearGradient>
</defs>
</svg>
