<svg width="8" height="9" viewBox="0 0 8 9" fill="none" xmlns="http://www.w3.org/2000/svg">
<path d="M0.226779 0.726779C0.27903 0.674395 0.341103 0.632834 0.409441 0.604477C0.477779 0.57612 0.551041 0.561523 0.625029 0.561523C0.699017 0.561523 0.772278 0.57612 0.840617 0.604477C0.908955 0.632834 0.971027 0.674395 1.02328 0.726779L4.00003 3.70465L6.97678 0.726779C7.02908 0.67448 7.09117 0.632994 7.1595 0.60469C7.22783 0.576386 7.30107 0.561818 7.37503 0.561818C7.44899 0.561818 7.52223 0.576386 7.59056 0.60469C7.65889 0.632994 7.72098 0.67448 7.77328 0.726779C7.82558 0.779078 7.86706 0.841165 7.89537 0.909497C7.92367 0.977829 7.93824 1.05107 7.93824 1.12503C7.93824 1.19899 7.92367 1.27223 7.89537 1.34056C7.86706 1.40889 7.82558 1.47098 7.77328 1.52328L4.7954 4.50003L7.77328 7.47678C7.82558 7.52908 7.86706 7.59117 7.89537 7.6595C7.92367 7.72783 7.93824 7.80107 7.93824 7.87503C7.93824 7.94899 7.92367 8.02223 7.89537 8.09056C7.86706 8.15889 7.82558 8.22098 7.77328 8.27328C7.72098 8.32558 7.65889 8.36706 7.59056 8.39537C7.52223 8.42367 7.44899 8.43824 7.37503 8.43824C7.30107 8.43824 7.22783 8.42367 7.1595 8.39537C7.09117 8.36706 7.02908 8.32558 6.97678 8.27328L4.00003 5.2954L1.02328 8.27328C0.97098 8.32558 0.908892 8.36706 0.84056 8.39537C0.772228 8.42367 0.698991 8.43824 0.625029 8.43824C0.551067 8.43824 0.477829 8.42367 0.409497 8.39537C0.341165 8.36706 0.279078 8.32558 0.226779 8.27328C0.17448 8.22098 0.132994 8.15889 0.10469 8.09056C0.0763859 8.02223 0.0618179 7.94899 0.0618179 7.87503C0.0618179 7.80107 0.0763859 7.72783 0.10469 7.6595C0.132994 7.59117 0.17448 7.52908 0.226779 7.47678L3.20465 4.50003L0.226779 1.52328C0.174395 1.47103 0.132834 1.40895 0.104477 1.34062C0.0761196 1.27228 0.0615234 1.19902 0.0615234 1.12503C0.0615234 1.05104 0.0761196 0.977779 0.104477 0.909441C0.132834 0.841103 0.174395 0.77903 0.226779 0.726779Z" fill="#E70000"/>
</svg>
