<svg width="15" height="15" viewBox="0 0 15 15" fill="none" xmlns="http://www.w3.org/2000/svg">
<path d="M2.8125 1.875V6.17438L9.375 12.7369L13.6744 8.4375L7.11188 1.875H2.8125ZM1.875 1.875C1.875 1.62636 1.97377 1.3879 2.14959 1.21209C2.3254 1.03627 2.56386 0.9375 2.8125 0.9375H7.11188C7.3605 0.937553 7.59891 1.03636 7.77469 1.21219L14.3372 7.77469C14.5129 7.95049 14.6117 8.18891 14.6117 8.4375C14.6117 8.68609 14.5129 8.92451 14.3372 9.10031L10.0378 13.3997C9.86201 13.5754 9.62359 13.6742 9.375 13.6742C9.12641 13.6742 8.88799 13.5754 8.71219 13.3997L2.14969 6.83719C1.97386 6.66141 1.87505 6.423 1.875 6.17438V1.875Z" fill="url(#paint0_linear_1476_662)"/>
<path d="M5.15625 4.6875C5.03193 4.6875 4.9127 4.63811 4.82479 4.55021C4.73689 4.4623 4.6875 4.34307 4.6875 4.21875C4.6875 4.09443 4.73689 3.9752 4.82479 3.88729C4.9127 3.79939 5.03193 3.75 5.15625 3.75C5.28057 3.75 5.3998 3.79939 5.48771 3.88729C5.57561 3.9752 5.625 4.09443 5.625 4.21875C5.625 4.34307 5.57561 4.4623 5.48771 4.55021C5.3998 4.63811 5.28057 4.6875 5.15625 4.6875ZM5.15625 5.625C5.52921 5.625 5.8869 5.47684 6.15062 5.21312C6.41434 4.9494 6.5625 4.59171 6.5625 4.21875C6.5625 3.84579 6.41434 3.4881 6.15062 3.22438C5.8869 2.96066 5.52921 2.8125 5.15625 2.8125C4.78329 2.8125 4.4256 2.96066 4.16188 3.22438C3.89816 3.4881 3.75 3.84579 3.75 4.21875C3.75 4.59171 3.89816 4.9494 4.16188 5.21312C4.4256 5.47684 4.78329 5.625 5.15625 5.625ZM0.9375 6.64313C0.937553 6.89175 1.03636 7.13016 1.21219 7.30594L8.20312 14.2969L8.16281 14.3372C7.98701 14.5129 7.74859 14.6117 7.5 14.6117C7.25141 14.6117 7.01299 14.5129 6.83719 14.3372L0.274687 7.77469C0.09886 7.59891 5.30976e-05 7.3605 0 7.11188L0 2.8125C0 2.56386 0.0987721 2.3254 0.274587 2.14959C0.450403 1.97377 0.68886 1.875 0.9375 1.875V6.64313Z" fill="url(#paint1_linear_1476_662)"/>
<defs>
<linearGradient id="paint0_linear_1476_662" x1="8.24334" y1="0.9375" x2="8.24334" y2="13.6742" gradientUnits="userSpaceOnUse">
<stop stop-color="#5A8FFF"/>
<stop offset="1" stop-color="#003094"/>
</linearGradient>
<linearGradient id="paint1_linear_1476_662" x1="4.10156" y1="1.875" x2="4.10156" y2="14.6117" gradientUnits="userSpaceOnUse">
<stop stop-color="#5A8FFF"/>
<stop offset="1" stop-color="#003094"/>
</linearGradient>
</defs>
</svg>
