<svg width="14" height="14" viewBox="0 0 14 14" fill="none" xmlns="http://www.w3.org/2000/svg">
<path d="M5.625 4.21875C5.625 4.59171 5.47684 4.9494 5.21312 5.21312C4.9494 5.47684 4.59171 5.625 4.21875 5.625C3.84579 5.625 3.4881 5.47684 3.22438 5.21312C2.96066 4.9494 2.8125 4.59171 2.8125 4.21875C2.8125 3.84579 2.96066 3.4881 3.22438 3.22438C3.4881 2.96066 3.84579 2.8125 4.21875 2.8125C4.59171 2.8125 4.9494 2.96066 5.21312 3.22438C5.47684 3.4881 5.625 3.84579 5.625 4.21875ZM4.6875 4.21875C4.6875 4.09443 4.63811 3.9752 4.55021 3.88729C4.4623 3.79939 4.34307 3.75 4.21875 3.75C4.09443 3.75 3.9752 3.79939 3.88729 3.88729C3.79939 3.9752 3.75 4.09443 3.75 4.21875C3.75 4.34307 3.79939 4.4623 3.88729 4.55021C3.9752 4.63811 4.09443 4.6875 4.21875 4.6875C4.34307 4.6875 4.4623 4.63811 4.55021 4.55021C4.63811 4.4623 4.6875 4.34307 4.6875 4.21875Z" fill="url(#paint0_linear_1476_672)"/>
<path d="M1.875 0.9375H6.17438C6.423 0.937553 6.66141 1.03636 6.83719 1.21219L13.3997 7.77469C13.5754 7.95049 13.6742 8.18891 13.6742 8.4375C13.6742 8.68609 13.5754 8.92451 13.3997 9.10031L9.10031 13.3997C8.92451 13.5754 8.68609 13.6742 8.4375 13.6742C8.18891 13.6742 7.95049 13.5754 7.77469 13.3997L1.21219 6.83719C1.03636 6.66141 0.937553 6.423 0.9375 6.17438V1.875C0.9375 1.62636 1.03627 1.3879 1.21209 1.21209C1.3879 1.03627 1.62636 0.9375 1.875 0.9375ZM1.875 6.17438L8.4375 12.7369L12.7369 8.4375L6.17438 1.875H1.875V6.17438Z" fill="url(#paint1_linear_1476_672)"/>
<defs>
<linearGradient id="paint0_linear_1476_672" x1="4.21875" y1="2.8125" x2="4.21875" y2="5.625" gradientUnits="userSpaceOnUse">
<stop stop-color="#5A8FFF"/>
<stop offset="1" stop-color="#003094"/>
</linearGradient>
<linearGradient id="paint1_linear_1476_672" x1="7.30584" y1="0.9375" x2="7.30584" y2="13.6742" gradientUnits="userSpaceOnUse">
<stop stop-color="#5A8FFF"/>
<stop offset="1" stop-color="#003094"/>
</linearGradient>
</defs>
</svg>
