<svg width="15" height="13" viewBox="0 0 15 13" fill="none" xmlns="http://www.w3.org/2000/svg">
<path d="M10.3125 4.15625C10.3125 4.03193 10.3619 3.9127 10.4498 3.82479C10.5377 3.73689 10.6569 3.6875 10.7812 3.6875H12.6562C12.7806 3.6875 12.8998 3.73689 12.9877 3.82479C13.0756 3.9127 13.125 4.03193 13.125 4.15625V5.09375C13.125 5.21807 13.0756 5.3373 12.9877 5.42521C12.8998 5.51311 12.7806 5.5625 12.6562 5.5625H10.7812C10.6569 5.5625 10.5377 5.51311 10.4498 5.42521C10.3619 5.3373 10.3125 5.21807 10.3125 5.09375V4.15625Z" fill="url(#paint0_linear_1476_236)"/>
<path d="M1.875 0.875C1.37772 0.875 0.900806 1.07254 0.549175 1.42417C0.197544 1.77581 0 2.25272 0 2.75L0 10.25C0 10.7473 0.197544 11.2242 0.549175 11.5758C0.900806 11.9275 1.37772 12.125 1.875 12.125H13.125C13.6223 12.125 14.0992 11.9275 14.4508 11.5758C14.8025 11.2242 15 10.7473 15 10.25V2.75C15 2.25272 14.8025 1.77581 14.4508 1.42417C14.0992 1.07254 13.6223 0.875 13.125 0.875H1.875ZM14.0625 2.75V7.4375H0.9375V2.75C0.9375 2.50136 1.03627 2.2629 1.21209 2.08709C1.3879 1.91127 1.62636 1.8125 1.875 1.8125H13.125C13.3736 1.8125 13.6121 1.91127 13.7879 2.08709C13.9637 2.2629 14.0625 2.50136 14.0625 2.75ZM13.125 11.1875H1.875C1.62636 11.1875 1.3879 11.0887 1.21209 10.9129C1.03627 10.7371 0.9375 10.4986 0.9375 10.25V9.3125H14.0625V10.25C14.0625 10.4986 13.9637 10.7371 13.7879 10.9129C13.6121 11.0887 13.3736 11.1875 13.125 11.1875Z" fill="url(#paint1_linear_1476_236)"/>
<defs>
<linearGradient id="paint0_linear_1476_236" x1="11.7188" y1="3.6875" x2="11.7188" y2="5.5625" gradientUnits="userSpaceOnUse">
<stop stop-color="#5A8FFF"/>
<stop offset="1" stop-color="#003094"/>
</linearGradient>
<linearGradient id="paint1_linear_1476_236" x1="7.5" y1="0.875" x2="7.5" y2="12.125" gradientUnits="userSpaceOnUse">
<stop stop-color="#5A8FFF"/>
<stop offset="1" stop-color="#003094"/>
</linearGradient>
</defs>
</svg>
