<svg width="14" height="10" viewBox="0 0 14 10" fill="none" xmlns="http://www.w3.org/2000/svg">
<path fill-rule="evenodd" clip-rule="evenodd" d="M13.9999 5.00014C13.9999 4.86753 13.9472 4.74036 13.8535 4.64659C13.7597 4.55282 13.6325 4.50014 13.4999 4.50014H1.70692L4.85392 1.35414C4.9004 1.30766 4.93728 1.25247 4.96244 1.19173C4.9876 1.13099 5.00055 1.06589 5.00055 1.00014C5.00055 0.934399 4.9876 0.869299 4.96244 0.80856C4.93728 0.74782 4.9004 0.692631 4.85392 0.646143C4.80743 0.599655 4.75224 0.562779 4.6915 0.53762C4.63076 0.512461 4.56566 0.499512 4.49992 0.499512C4.43417 0.499512 4.36907 0.512461 4.30833 0.53762C4.24759 0.562779 4.1924 0.599655 4.14592 0.646143L0.145917 4.64614C0.099354 4.69259 0.0624111 4.74776 0.0372047 4.80851C0.0119982 4.86926 -0.000976563 4.93438 -0.000976562 5.00014C-0.000976563 5.06591 0.0119982 5.13103 0.0372047 5.19178C0.0624111 5.25252 0.099354 5.3077 0.145917 5.35414L4.14592 9.35414C4.1924 9.40063 4.24759 9.43751 4.30833 9.46267C4.36907 9.48783 4.43417 9.50077 4.49992 9.50077C4.56566 9.50077 4.63076 9.48783 4.6915 9.46267C4.75224 9.43751 4.80743 9.40063 4.85392 9.35414C4.9004 9.30766 4.93728 9.25247 4.96244 9.19173C4.9876 9.13099 5.00055 9.06589 5.00055 9.00014C5.00055 8.9344 4.9876 8.8693 4.96244 8.80856C4.93728 8.74782 4.9004 8.69263 4.85392 8.64614L1.70692 5.50014H13.4999C13.6325 5.50014 13.7597 5.44746 13.8535 5.3537C13.9472 5.25993 13.9999 5.13275 13.9999 5.00014Z" fill="url(#paint0_linear_1247_17)"/>
<defs>
<linearGradient id="paint0_linear_1247_17" x1="6.99947" y1="0.499512" x2="6.99947" y2="9.50077" gradientUnits="userSpaceOnUse">
<stop stop-color="#0029FF"/>
<stop offset="1" stop-color="#001A77"/>
</linearGradient>
</defs>
</svg>
