<svg width="30" height="30" viewBox="0 0 30 30" fill="none" xmlns="http://www.w3.org/2000/svg">
<path d="M6.9445 21.0417H2.91672V27.0834H6.9445V21.0417ZM17.0139 12.9862H12.9862V27.0834H17.0139V12.9862ZM27.0834 2.91672V27.0834H23.0556V2.91672H27.0834ZM23.0556 0.902832C22.5215 0.902832 22.0093 1.11501 21.6316 1.49269C21.2539 1.87036 21.0417 2.3826 21.0417 2.91672V27.0834C21.0417 27.6175 21.2539 28.1297 21.6316 28.5074C22.0093 28.8851 22.5215 29.0973 23.0556 29.0973H27.0834C27.6175 29.0973 28.1297 28.8851 28.5074 28.5074C28.8851 28.1297 29.0973 27.6175 29.0973 27.0834V2.91672C29.0973 2.3826 28.8851 1.87036 28.5074 1.49269C28.1297 1.11501 27.6175 0.902832 27.0834 0.902832H23.0556ZM10.9723 12.9862C10.9723 12.452 11.1845 11.9398 11.5621 11.5621C11.9398 11.1845 12.452 10.9723 12.9862 10.9723H17.0139C17.5481 10.9723 18.0603 11.1845 18.438 11.5621C18.8157 11.9398 19.0278 12.452 19.0278 12.9862V27.0834C19.0278 27.6175 18.8157 28.1297 18.438 28.5074C18.0603 28.8851 17.5481 29.0973 17.0139 29.0973H12.9862C12.452 29.0973 11.9398 28.8851 11.5621 28.5074C11.1845 28.1297 10.9723 27.6175 10.9723 27.0834V12.9862ZM0.902832 21.0417C0.902832 20.5076 1.11501 19.9954 1.49269 19.6177C1.87036 19.24 2.3826 19.0278 2.91672 19.0278H6.9445C7.47862 19.0278 7.99086 19.24 8.36853 19.6177C8.74621 19.9954 8.95839 20.5076 8.95839 21.0417V27.0834C8.95839 27.6175 8.74621 28.1297 8.36853 28.5074C7.99086 28.8851 7.47862 29.0973 6.9445 29.0973H2.91672C2.3826 29.0973 1.87036 28.8851 1.49269 28.5074C1.11501 28.1297 0.902832 27.6175 0.902832 27.0834V21.0417Z" fill="#F4F4F4"/>
</svg>
