<svg width="30" height="30" viewBox="0 0 30 30" fill="none" xmlns="http://www.w3.org/2000/svg">
<path fill-rule="evenodd" clip-rule="evenodd" d="M28.6692 0.140405C28.8099 0.224394 28.926 0.341678 29.0065 0.481136C29.0871 0.620593 29.1294 0.777604 29.1295 0.93728V29.0623C29.1295 29.3109 29.0272 29.5494 28.8451 29.7252C28.663 29.901 28.416 29.9998 28.1585 29.9998H22.3326C22.0751 29.9998 21.8281 29.901 21.646 29.7252C21.4639 29.5494 21.3616 29.3109 21.3616 29.0623V26.2498H19.4196V29.0623C19.4196 29.3109 19.3173 29.5494 19.1353 29.7252C18.9532 29.901 18.7062 29.9998 18.4487 29.9998H0.970982C0.713462 29.9998 0.466489 29.901 0.284394 29.7252C0.1023 29.5494 0 29.3109 0 29.0623V18.7498C0.000154671 18.5531 0.0643724 18.3614 0.183564 18.2019C0.302756 18.0424 0.470884 17.9232 0.664152 17.861L11.6518 14.3248V8.43728C11.6518 8.26332 11.7019 8.09279 11.7966 7.94477C11.8912 7.79676 12.0267 7.67709 12.1878 7.59915L27.7235 0.0991545C27.8717 0.0275405 28.0364 -0.00626514 28.2019 0.000955275C28.3675 0.00817569 28.5283 0.0561819 28.6692 0.140405ZM11.6518 16.301L1.94196 19.4248V28.1248H11.6518V16.301ZM13.5938 28.1248H17.4777V25.3123C17.4777 25.0636 17.58 24.8252 17.7621 24.6494C17.9442 24.4736 18.1911 24.3748 18.4487 24.3748H22.3326C22.5901 24.3748 22.8371 24.4736 23.0192 24.6494C23.2013 24.8252 23.3036 25.0636 23.3036 25.3123V28.1248H27.1875V2.45415L13.5938 9.01665V28.1248Z" fill="#F4F4F4"/>
<path d="M3.88379 20.625H5.82575V22.5H3.88379V20.625ZM7.76772 20.625H9.70968V22.5H7.76772V20.625ZM3.88379 24.375H5.82575V26.25H3.88379V24.375ZM7.76772 24.375H9.70968V26.25H7.76772V24.375ZM15.5356 16.875H17.4775V18.75H15.5356V16.875ZM19.4195 16.875H21.3615V18.75H19.4195V16.875ZM15.5356 20.625H17.4775V22.5H15.5356V20.625ZM19.4195 20.625H21.3615V22.5H19.4195V20.625ZM23.3034 16.875H25.2454V18.75H23.3034V16.875ZM23.3034 20.625H25.2454V22.5H23.3034V20.625ZM15.5356 13.125H17.4775V15H15.5356V13.125ZM19.4195 13.125H21.3615V15H19.4195V13.125ZM23.3034 13.125H25.2454V15H23.3034V13.125ZM15.5356 9.375H17.4775V11.25H15.5356V9.375ZM19.4195 9.375H21.3615V11.25H19.4195V9.375ZM23.3034 9.375H25.2454V11.25H23.3034V9.375ZM23.3034 5.625H25.2454V7.5H23.3034V5.625Z" fill="#F4F4F4"/>
</svg>
