<svg width="30" height="31" viewBox="0 0 30 31" fill="none" xmlns="http://www.w3.org/2000/svg">
<path d="M5.625 4.68896C5.625 3.44576 6.11886 2.25348 6.99794 1.3744C7.87701 0.495325 9.0693 0.00146484 10.3125 0.00146484C11.5557 0.00146484 12.748 0.495325 13.6271 1.3744C14.5061 2.25348 15 3.44576 15 4.68896C15 3.44576 15.4939 2.25348 16.3729 1.3744C17.252 0.495325 18.4443 0.00146484 19.6875 0.00146484C20.9307 0.00146484 22.123 0.495325 23.0021 1.3744C23.8811 2.25348 24.375 3.44576 24.375 4.68896V4.70021C24.375 4.83146 24.375 5.20646 24.3037 5.62646H28.125C28.6223 5.62646 29.0992 5.82401 29.4508 6.17564C29.8025 6.52727 30 7.00418 30 7.50146V9.37646C30 9.87375 29.8025 10.3507 29.4508 10.7023C29.0992 11.0539 28.6223 11.2515 28.125 11.2515H1.875C1.37772 11.2515 0.900806 11.0539 0.549175 10.7023C0.197544 10.3507 0 9.87375 0 9.37646V7.50146C0 7.00418 0.197544 6.52727 0.549175 6.17564C0.900806 5.82401 1.37772 5.62646 1.875 5.62646H5.69625C5.64673 5.32024 5.62289 5.01041 5.625 4.70021V4.68896ZM7.6275 5.62646H13.125V4.68896C13.125 4.31962 13.0523 3.9539 12.9109 3.61267C12.7696 3.27144 12.5624 2.96139 12.3012 2.70023C12.0401 2.43906 11.73 2.23189 11.3888 2.09055C11.0476 1.94921 10.6818 1.87646 10.3125 1.87646C9.94316 1.87646 9.57743 1.94921 9.2362 2.09055C8.89497 2.23189 8.58493 2.43906 8.32376 2.70023C8.0626 2.96139 7.85543 3.27144 7.71409 3.61267C7.57275 3.9539 7.5 4.31962 7.5 4.68896C7.5 4.84834 7.50375 5.20271 7.58438 5.49521C7.59564 5.53993 7.61005 5.58379 7.6275 5.62646ZM16.875 5.62646H22.3725C22.3897 5.58371 22.4041 5.53986 22.4156 5.49521C22.4963 5.20271 22.5 4.84834 22.5 4.68896C22.5 3.94304 22.2037 3.22767 21.6762 2.70023C21.1488 2.17278 20.4334 1.87646 19.6875 1.87646C18.9416 1.87646 18.2262 2.17278 17.6988 2.70023C17.1713 3.22767 16.875 3.94304 16.875 4.68896V5.62646ZM28.125 13.1265V27.189C28.125 27.9349 27.8287 28.6503 27.3012 29.1777C26.7738 29.7051 26.0584 30.0015 25.3125 30.0015H16.875V13.1265H28.125ZM4.6875 30.0015C3.94158 30.0015 3.22621 29.7051 2.69876 29.1777C2.17132 28.6503 1.875 27.9349 1.875 27.189V13.1265H13.125V30.0015H4.6875Z" fill="url(#paint0_linear_1357_1996)"/>
<defs>
<linearGradient id="paint0_linear_1357_1996" x1="15" y1="0.00146484" x2="15" y2="30.0015" gradientUnits="userSpaceOnUse">
<stop stop-color="#5A8FFF"/>
<stop offset="1" stop-color="#003094"/>
</linearGradient>
</defs>
</svg>
