<svg width="52" height="52" viewBox="0 0 52 52" fill="none" xmlns="http://www.w3.org/2000/svg">
<g clip-path="url(#clip0_1357_2414)">
<path d="M26 0C11.6405 0 0 11.6405 0 26C0 40.3595 11.6405 52 26 52C40.3595 52 52 40.3595 52 26C52 11.6405 40.3595 0 26 0ZM24.1634 49.4203C11.062 49.4203 0.443326 39.0887 0.443326 26.3462C0.443326 13.6038 11.062 3.26794 24.1634 3.26794C37.2647 3.26794 47.8834 13.5995 47.8834 26.342C47.8834 39.0844 37.2647 49.416 24.1634 49.416V49.4203Z" fill="#F4F4F4"/>
<path d="M16.4201 34.9132C16.3694 34.9132 16.323 34.9048 16.2723 34.8879C16.0528 34.8076 15.943 34.5628 16.0232 34.3432C16.4665 33.1441 15.8797 31.7804 14.7143 31.3033C14.499 31.2146 14.3935 30.9697 14.4821 30.7544C14.5708 30.5391 14.8157 30.4335 15.031 30.5222C16.6143 31.1682 17.4123 33.0175 16.8085 34.6345C16.7452 34.8034 16.5848 34.909 16.4117 34.909L16.4201 34.9132Z" fill="#F4F4F4"/>
<path d="M15.3179 33.1947C15.1574 33.1947 15.0012 33.1019 14.9294 32.9414C14.8366 32.7303 14.9294 32.477 15.1448 32.3841C15.3179 32.3081 15.5037 32.211 15.6979 32.1139C15.8414 32.0421 15.9892 31.9661 16.137 31.8943C19.1094 30.4715 22.0269 29.7326 25.0668 29.6397C25.2948 29.6228 25.4933 29.817 25.5017 30.0492C25.5102 30.2815 25.3244 30.4757 25.0922 30.4841C22.1747 30.5728 19.3669 31.2863 16.5043 32.6585C16.3608 32.7261 16.2214 32.7979 16.0821 32.8696C15.8752 32.9752 15.6768 33.0765 15.491 33.1567C15.4361 33.1821 15.377 33.1947 15.3221 33.1947H15.3179Z" fill="#F4F4F4"/>
<path d="M19.2152 39.3165C19.2152 39.3165 19.1814 39.3165 19.1603 39.3165C18.9281 39.287 18.7635 39.0759 18.793 38.8436C18.9535 37.5728 18.0752 36.399 16.8424 36.2301C16.6102 36.1963 16.4497 35.9852 16.4835 35.753C16.5173 35.5208 16.7284 35.3604 16.9606 35.3941C18.6495 35.6264 19.8485 37.2223 19.6332 38.9492C19.6079 39.1645 19.4263 39.3207 19.2152 39.3207V39.3165Z" fill="#F4F4F4"/>
<path d="M18.1258 37.6826C18.0245 37.6826 17.9274 37.6488 17.8472 37.577C17.6741 37.4208 17.6572 37.1548 17.8134 36.9817C18.1005 36.6608 18.4045 36.3484 18.7169 36.0528C20.8956 33.9924 23.6442 32.6371 26.8868 32.0165C27.1148 31.9742 27.3386 32.122 27.3808 32.3542C27.423 32.5822 27.2752 32.806 27.043 32.8482C23.9608 33.4351 21.3516 34.7186 19.2954 36.6693C18.9998 36.9479 18.7127 37.2435 18.4425 37.5475C18.3581 37.6404 18.2441 37.691 18.1258 37.691V37.6826Z" fill="#F4F4F4"/>
<path d="M23.6105 43.1585C23.412 43.1585 23.2347 43.0149 23.1967 42.8122C23.0827 42.1958 22.7365 41.668 22.2256 41.326C21.7359 40.9967 21.1448 40.8785 20.5663 41.0009C20.3383 41.0474 20.1145 40.8996 20.0681 40.6716C20.0217 40.4436 20.1694 40.2198 20.3974 40.1734C21.1996 40.0087 22.0145 40.1692 22.6985 40.6252C23.3994 41.0938 23.868 41.8158 24.0285 42.6602C24.0707 42.8882 23.9187 43.1078 23.6907 43.1542C23.6654 43.1585 23.64 43.1627 23.6147 43.1627L23.6105 43.1585Z" fill="#F4F4F4"/>
<path d="M22.082 41.9765C22.0271 41.9765 21.968 41.9638 21.9173 41.9427C21.702 41.8498 21.6049 41.6007 21.6978 41.3896C21.8667 41.0011 22.0482 40.6127 22.2467 40.2454C23.6273 37.6487 25.7342 35.5123 28.5081 33.8995C28.7108 33.7813 28.9683 33.8488 29.0865 34.0515C29.2048 34.2541 29.1372 34.5117 28.9346 34.6299C26.2999 36.1668 24.2986 38.1892 22.994 40.6465C22.8082 40.9969 22.6351 41.36 22.4747 41.7273C22.4071 41.8878 22.2509 41.9849 22.0862 41.9849L22.082 41.9765Z" fill="#F4F4F4"/>
<path d="M28.9342 45.3964C28.7822 45.3964 28.6344 45.3162 28.5627 45.1726C28.2756 44.6322 27.8069 44.248 27.2369 44.0833C26.6669 43.9229 26.0674 43.9989 25.5438 44.3071C25.3412 44.4253 25.0836 44.3578 24.9654 44.1551C24.8472 43.9524 24.9147 43.6949 25.1174 43.5767C25.8394 43.1544 26.6754 43.0447 27.4691 43.2727C28.2629 43.5007 28.9173 44.0327 29.31 44.7758C29.4198 44.9826 29.3395 45.236 29.1327 45.3457C29.0693 45.3795 29.0018 45.3964 28.9342 45.3964Z" fill="#F4F4F4"/>
<path d="M27.3594 45.0124H27.3383C27.106 44.9997 26.9245 44.8013 26.9371 44.569C26.9583 44.1426 26.9963 43.7162 27.0511 43.294C27.7182 39.988 28.9384 37.2056 30.6822 34.9974C30.8257 34.8159 31.0917 34.7821 31.2733 34.9256C31.4548 35.0692 31.4886 35.3352 31.3451 35.5168C29.6858 37.6236 28.5205 40.2836 27.8871 43.4291C27.8407 43.8006 27.8027 44.2059 27.7858 44.607C27.7731 44.835 27.5874 45.0081 27.3636 45.0081L27.3594 45.0124Z" fill="#F4F4F4"/>
<path d="M36.5551 12.3877C29.5463 12.3877 23.8633 18.0707 23.8633 25.0795C23.8633 32.0882 29.5463 37.7713 36.5551 37.7713C43.5638 37.7713 49.2468 32.0882 49.2468 25.0795C49.2468 18.0707 43.5638 12.3877 36.5551 12.3877V12.3877ZM37.2686 35.6729C31.3069 35.694 26.4557 30.944 26.4346 25.0584C26.4135 19.1727 31.2267 14.3848 37.1884 14.3637C43.1501 14.3426 48.0013 19.0925 48.0224 24.9781C48.0435 30.8638 43.2303 35.6517 37.2686 35.6729Z" fill="#F4F4F4"/>
<path d="M36.5552 37.9825C29.4409 37.9825 23.6523 32.194 23.6523 25.0796C23.6523 17.9653 29.4409 12.1768 36.5552 12.1768C43.6696 12.1768 49.4581 17.9653 49.4581 25.0796C49.4581 32.194 43.6696 37.9825 36.5552 37.9825ZM36.5552 12.599C29.6731 12.599 24.0746 18.1975 24.0746 25.0796C24.0746 31.9618 29.6731 37.5603 36.5552 37.5603C43.4373 37.5603 49.0359 31.9618 49.0359 25.0796C49.0359 18.1975 43.4373 12.599 36.5552 12.599V12.599ZM37.2266 35.8841C34.3048 35.8841 31.552 34.7653 29.4789 32.7344C27.3932 30.6909 26.2363 27.9676 26.2236 25.0628C26.211 22.1579 27.3467 19.4262 29.4198 17.3658C31.4887 15.3054 34.2499 14.1654 37.1886 14.1569C40.1272 14.1358 42.8969 15.2632 44.9826 17.3067C47.0684 19.3502 48.2253 22.0735 48.2379 24.9783C48.2506 27.8832 47.1148 30.6149 45.0418 32.6753C42.9729 34.7357 40.2116 35.8757 37.273 35.8841H37.2308H37.2266ZM37.2308 14.5749H37.1886C34.3597 14.5876 31.7082 15.6811 29.7154 17.6613C27.7267 19.6415 26.6332 22.2677 26.6458 25.0543C26.6543 27.8452 27.7647 30.4629 29.7702 32.4262C31.7673 34.381 34.4146 35.4577 37.2223 35.4577H37.2646C40.0934 35.445 42.7449 34.3515 44.7378 32.3713C46.7264 30.3911 47.8199 27.7649 47.8073 24.9741C47.7988 22.1833 46.6884 19.5655 44.6787 17.6022C42.6816 15.6474 40.0385 14.5707 37.2266 14.5707L37.2308 14.5749Z" fill="#F4F4F4"/>
<path d="M14.5451 22.9855C14.372 22.9855 14.2116 22.8799 14.1483 22.7068C14.068 22.4873 14.182 22.2466 14.4016 22.1664C15.5373 21.7484 16.1369 20.5029 15.7358 19.384C15.6556 19.1644 15.7696 18.9238 15.9891 18.8436C16.2087 18.7633 16.4493 18.8773 16.5295 19.0969C17.0869 20.6506 16.2635 22.3817 14.6887 22.9559C14.6422 22.9728 14.5916 22.9813 14.5451 22.9813V22.9855Z" fill="#F4F4F4"/>
<path d="M23.0146 23.5975C20.2237 23.5975 17.7918 22.9557 15.7609 21.6764C15.44 21.4737 15.1276 21.2542 14.8278 21.022C14.6421 20.8784 14.6125 20.6124 14.7561 20.4309C14.8996 20.2451 15.1656 20.2155 15.3472 20.3591C15.6216 20.5744 15.9129 20.7771 16.2085 20.9628C18.518 22.4153 21.4059 22.9853 24.7963 22.6644C25.0285 22.6433 25.2354 22.8121 25.2565 23.0444C25.2776 23.2766 25.1088 23.4835 24.8765 23.5046C24.239 23.5637 23.6183 23.5932 23.0146 23.5932V23.5975Z" fill="#F4F4F4"/>
<path d="M16.1959 17.125C15.9806 17.125 15.7948 16.9603 15.7737 16.7408C15.7526 16.5086 15.9257 16.3017 16.1579 16.2848C17.3612 16.1792 18.2563 15.1279 18.155 13.9457C18.1339 13.7135 18.307 13.5108 18.5392 13.4897C18.7714 13.4644 18.9783 13.6417 18.9952 13.8739C19.1388 15.5206 17.8975 16.9814 16.2339 17.1292C16.2213 17.1292 16.2086 17.1292 16.1959 17.1292V17.125Z" fill="#F4F4F4"/>
<path d="M25.6534 20.3592C25.6239 20.3592 25.5901 20.3592 25.5605 20.3508C22.4192 19.633 19.7888 18.2439 17.7453 16.2173C17.454 15.9302 17.1711 15.622 16.9009 15.3053C16.7489 15.128 16.77 14.862 16.9473 14.71C17.1247 14.558 17.3907 14.5791 17.5427 14.7564C17.796 15.0562 18.062 15.3433 18.3364 15.6135C20.2702 17.5261 22.7612 18.8435 25.7463 19.5232C25.9743 19.5739 26.1178 19.8019 26.063 20.0299C26.0165 20.2241 25.8434 20.3592 25.6534 20.3592V20.3592Z" fill="#F4F4F4"/>
<path d="M20.4479 11.864C20.2453 11.864 20.0468 11.8429 19.8442 11.8049C19.6162 11.7585 19.4684 11.5389 19.5106 11.3067C19.5571 11.0787 19.7808 10.9309 20.0088 10.9732C20.5915 11.0872 21.1784 10.9732 21.6639 10.6438C22.1368 10.3272 22.4577 9.84162 22.5675 9.28429C22.6097 9.0563 22.8334 8.9043 23.0614 8.95074C23.2894 8.99719 23.4414 9.21674 23.395 9.44473C23.243 10.2258 22.7954 10.8972 22.1326 11.3447C21.6259 11.6825 21.0433 11.8598 20.4479 11.8598V11.864Z" fill="#F4F4F4"/>
<path d="M27.9677 17.754C27.8959 17.754 27.8284 17.7371 27.7608 17.6991C25.0502 16.1791 22.9898 14.1736 21.6345 11.7289C21.4402 11.3785 21.2587 11.0154 21.0982 10.6523C21.0011 10.4412 21.0982 10.1879 21.3136 10.095C21.5247 10.0021 21.778 10.095 21.8709 10.3103C22.0229 10.6565 22.196 10.9943 22.3776 11.3236C23.6526 13.6289 25.6033 15.5247 28.1746 16.9644C28.3772 17.0784 28.449 17.336 28.335 17.5386C28.259 17.678 28.1155 17.754 27.9677 17.754V17.754Z" fill="#F4F4F4"/>
<path d="M26.2957 8.29641C25.7806 8.29641 25.2697 8.1613 24.801 7.89953C24.5984 7.78553 24.5266 7.52798 24.6406 7.32531C24.7546 7.12265 25.0121 7.05087 25.2148 7.16487C25.7341 7.4562 26.3295 7.52798 26.8952 7.36753C27.4399 7.21132 27.8916 6.85243 28.1619 6.35844C28.2759 6.15578 28.5292 6.07978 28.7361 6.19378C28.9387 6.30777 29.0147 6.5611 28.9007 6.76799C28.5207 7.46042 27.8874 7.96286 27.1232 8.18241C26.8488 8.26263 26.5701 8.30063 26.2957 8.30063V8.29641Z" fill="#F4F4F4"/>
<path d="M30.5599 16.1159C30.4374 16.1159 30.315 16.0653 30.2348 15.9597C28.529 13.8782 27.3342 11.2605 26.6882 8.17828C26.6291 7.75185 26.5911 7.34652 26.57 6.94542C26.5573 6.7132 26.7388 6.51476 26.9711 6.50209C27.1991 6.48942 27.4017 6.67098 27.4144 6.90319C27.4313 7.27897 27.4693 7.65896 27.5199 8.03473C28.1322 10.9522 29.2679 13.4517 30.8892 15.4235C31.037 15.605 31.0117 15.871 30.8301 16.0188C30.7499 16.0821 30.657 16.1159 30.5641 16.1159H30.5599Z" fill="#F4F4F4"/>
<path d="M35.5841 32.464C35.1703 32.4513 34.8072 32.4344 34.4948 32.4217C33.3126 32.3668 32.4597 32.3373 31.9404 32.3373C31.5182 32.3373 31.2226 32.2909 31.0537 32.198C30.8849 32.1051 30.8004 31.9362 30.8004 31.6829C30.8004 31.3873 30.9904 31.1255 31.3704 30.9018C31.8475 30.6484 32.1557 30.3951 32.2908 30.1418C32.4259 29.8884 32.4893 29.4662 32.4893 28.8751V21.0219C32.4893 20.4308 32.4175 20.0086 32.2782 19.7553C32.1388 19.502 31.8264 19.2486 31.3493 18.9953C30.9693 18.7546 30.7793 18.4971 30.7793 18.2142C30.7793 17.9609 30.8637 17.7878 31.0326 17.6991C31.2015 17.6062 31.4971 17.5598 31.9193 17.5598C32.7637 17.5598 33.6926 17.5302 34.7059 17.4753C35.5208 17.4458 36.0992 17.4331 36.437 17.4331C38.2229 17.4331 39.7978 17.7244 41.1573 18.3071C42.5169 18.8897 43.5724 19.7595 44.3324 20.9164C45.0924 22.069 45.4724 23.4792 45.4724 25.1385C45.4724 27.5578 44.7208 29.3902 43.2135 30.6273C41.7062 31.8644 39.6163 32.4851 36.9436 32.4851C36.4496 32.4851 35.9979 32.4766 35.5841 32.464V32.464ZM40.7436 29.348C41.5036 28.3136 41.8835 26.8612 41.8835 24.9908C41.8835 23.7368 41.6556 22.6559 41.1996 21.7397C40.7436 20.8235 40.1102 20.1226 39.2996 19.6286C38.4889 19.1346 37.5727 18.8897 36.5425 18.8897C36.247 18.8897 36.0401 18.9489 35.9219 19.0713C35.8037 19.1937 35.7445 19.3964 35.7445 19.692V29.8884C35.7445 30.3107 35.8712 30.5851 36.1245 30.7118C36.3779 30.8384 36.8085 30.9018 37.4123 30.9018C38.8774 30.9018 39.9878 30.3824 40.7478 29.348H40.7436Z" fill="#F4F4F4"/>
<path d="M14.8241 29.3314C14.7523 29.3314 14.6847 29.3145 14.6172 29.2765C14.4145 29.1625 14.3427 28.9049 14.4567 28.7023C15.0774 27.5918 14.7016 26.1478 13.6207 25.4807C13.4223 25.3583 13.359 25.0965 13.4814 24.8981C13.6039 24.6997 13.8656 24.6363 14.0641 24.7588C15.5249 25.6623 16.0316 27.6129 15.1956 29.1118C15.1196 29.2511 14.9761 29.3271 14.8283 29.3271L14.8241 29.3314Z" fill="#F4F4F4"/>
<path d="M13.9417 27.4992C13.777 27.4992 13.6208 27.4021 13.5532 27.2416C13.4646 27.0263 13.5617 26.7772 13.777 26.6885C14.0599 26.5703 14.3808 26.4732 14.689 26.3803L14.9381 26.3043C16.9605 25.6752 21.6682 25.7216 24.3704 26.1776C24.5984 26.2156 24.7546 26.4352 24.7166 26.6632C24.6786 26.8912 24.4633 27.0516 24.231 27.0094C21.6766 26.5787 17.0745 26.5238 15.1914 27.1107L14.9339 27.1867C14.6468 27.2712 14.3512 27.3641 14.1063 27.4654C14.0514 27.4865 13.9966 27.4992 13.9417 27.4992V27.4992Z" fill="#F4F4F4"/>
<path d="M30.2852 9.5504C29.6519 9.5504 29.0144 9.36463 28.4993 8.98464C28.3135 8.84531 28.2713 8.58353 28.4106 8.39353C28.5499 8.20354 28.8117 8.16554 29.0017 8.30487C29.8081 8.89597 31.0157 8.84108 31.6954 8.18243C31.8643 8.01776 32.1303 8.02199 32.2908 8.19087C32.4554 8.35976 32.4512 8.62575 32.2823 8.7862C31.763 9.29285 31.0283 9.5504 30.2852 9.5504Z" fill="#F4F4F4"/>
<path d="M32.1006 15.8712C31.9613 15.8712 31.822 15.7994 31.7417 15.6727C30.6229 13.8699 30.0487 11.7546 30.0444 9.37749C30.0698 9.03972 30.112 8.7315 30.1669 8.43173C30.2091 8.20373 30.4286 8.05174 30.6609 8.09396C30.8889 8.13618 31.0409 8.35573 30.9986 8.58795C30.948 8.85817 30.91 9.13683 30.8889 9.41127C30.8931 11.5899 31.4209 13.5574 32.4595 15.2252C32.5819 15.4236 32.5228 15.6854 32.3244 15.8078C32.2568 15.85 32.1766 15.8712 32.1006 15.8712V15.8712Z" fill="#F4F4F4"/>
<path d="M12.1938 41.6306C11.9827 41.6306 11.8011 41.4744 11.7758 41.2633C11.6196 40.022 10.8174 38.7807 10.0236 38.5569C9.79982 38.4936 9.66894 38.2571 9.73227 38.0334C9.7956 37.8096 10.032 37.6787 10.2558 37.742C11.3789 38.0629 12.4133 39.5618 12.616 41.1578C12.6456 41.39 12.4809 41.6011 12.2487 41.6306C12.2318 41.6306 12.2149 41.6306 12.1938 41.6306V41.6306Z" fill="#F4F4F4"/>
<path d="M10.3992 40.8791C10.319 40.8791 10.2345 40.8537 10.1627 40.8073C9.96851 40.6764 9.91785 40.4146 10.0487 40.2204C10.5047 39.5407 13.608 36.8089 14.1527 36.4036C16.8295 34.4023 22.2972 30.957 25.8269 30.7375C26.0591 30.7248 26.2618 30.8979 26.2745 31.1343C26.2871 31.3666 26.114 31.5692 25.8776 31.5819C22.5463 31.7888 17.2559 35.1369 14.6551 37.0834C14.0218 37.5562 11.0958 40.1782 10.7454 40.6975C10.6652 40.82 10.5301 40.8833 10.395 40.8833L10.3992 40.8791Z" fill="#F4F4F4"/>
<path d="M15.9895 45.6628C15.9388 45.6628 15.8882 45.6543 15.8417 45.6332C15.6222 45.5488 15.5124 45.3081 15.5968 45.0885C15.9008 44.2948 17.6572 41.6982 17.9823 41.2506C20.047 38.4302 24.7082 33.9463 28.0944 32.8696C28.3182 32.7979 28.5546 32.9203 28.6264 33.1441C28.6982 33.3679 28.5757 33.6043 28.3519 33.6761C25.4513 34.6007 20.921 38.6751 18.6663 41.753C18.2315 42.3484 16.627 44.7677 16.3906 45.3925C16.3273 45.5614 16.1668 45.667 15.9937 45.667L15.9895 45.6628Z" fill="#F4F4F4"/>
<path d="M17.7372 46.245C17.5641 46.245 17.4036 46.1395 17.3403 45.9706C16.9096 44.8053 15.8583 43.8046 15.0392 43.7793C14.807 43.7708 14.6212 43.5766 14.6297 43.3444C14.6381 43.1122 14.8323 42.9264 15.0646 42.9348C16.2299 42.9686 17.5767 44.1719 18.1341 45.6792C18.2143 45.8988 18.1045 46.1395 17.8849 46.2197C17.8385 46.2366 17.7878 46.245 17.7372 46.245Z" fill="#F4F4F4"/>
<path d="M23.855 47.7738C23.6312 47.7738 23.4412 47.5965 23.4328 47.3685C23.4117 46.8196 23.4497 46.2665 23.4919 45.7345C23.5045 45.5867 23.513 45.4389 23.5214 45.2954C23.7537 41.7108 26.9456 36.4415 29.538 34.3009C29.7196 34.1531 29.9855 34.1785 30.1333 34.3558C30.2811 34.5331 30.2558 34.8033 30.0784 34.9511C27.6676 36.944 24.5812 42.0274 24.3659 45.3503C24.3574 45.4981 24.3448 45.6458 24.3321 45.7978C24.2941 46.3045 24.2561 46.8323 24.273 47.3347C24.2814 47.5669 24.0999 47.7653 23.8677 47.7738H23.8508H23.855Z" fill="#F4F4F4"/>
<path d="M25.7382 47.8203C25.6327 47.8203 25.5271 47.7823 25.4469 47.702C24.6067 46.8998 23.2514 46.4776 22.4872 46.7774C22.2718 46.8618 22.0269 46.7563 21.9383 46.541C21.8538 46.3256 21.9594 46.0807 22.1747 45.9921C23.2471 45.5699 24.9402 46.0512 26.0253 47.0898C26.1942 47.2503 26.2026 47.5163 26.038 47.6852C25.9535 47.7738 25.8438 47.816 25.734 47.816L25.7382 47.8203Z" fill="#F4F4F4"/>
<path d="M9.24656 34.2672C9.21701 34.2672 9.18745 34.2672 9.1579 34.2587C8.9299 34.2123 8.78212 33.9885 8.83279 33.7605C9.09034 32.5319 8.73146 31.0752 8.05591 30.5728C7.87014 30.4335 7.82792 30.1717 7.96725 29.9817C8.10658 29.7959 8.36835 29.7537 8.55835 29.893C9.50411 30.5897 9.98966 32.3672 9.66033 33.9336C9.61811 34.1321 9.445 34.2714 9.24656 34.2714V34.2672Z" fill="#F4F4F4"/>
<path d="M7.73476 32.8526C7.58698 32.8526 7.44343 32.7724 7.36321 32.6373C7.24921 32.4346 7.32521 32.1771 7.52787 32.0631C7.92898 31.8393 9.90917 31.1004 11.902 30.3573C12.2905 30.2138 12.586 30.104 12.7253 30.0491C15.7991 28.8711 21.6425 27.9127 25.1131 28.4278C25.3453 28.4616 25.5016 28.6769 25.4678 28.9049C25.434 29.1371 25.2187 29.2933 24.9907 29.2595C21.7481 28.7824 16.0017 29.6986 13.0293 30.8344C12.89 30.8893 12.586 30.9991 12.1976 31.1468C10.9394 31.6155 8.31742 32.5908 7.93742 32.7977C7.87409 32.8357 7.80231 32.8526 7.73476 32.8526V32.8526Z" fill="#F4F4F4"/>
<path d="M30.032 42.9138C29.9095 42.9138 29.7871 42.8589 29.7027 42.7533C29.5591 42.5718 29.5887 42.3058 29.7702 42.158C30.8933 41.2587 32.7468 41.1616 33.9839 41.9385C34.1824 42.0609 34.2415 42.3227 34.119 42.5211C33.9966 42.7196 33.7348 42.7787 33.5364 42.6562C32.6117 42.0778 31.1298 42.1538 30.2938 42.8209C30.2178 42.8842 30.1249 42.9138 30.032 42.9138Z" fill="#F4F4F4"/>
<path d="M32.1559 42.8505C31.9913 42.8505 31.835 42.7534 31.7675 42.5929C31.6619 42.3396 31.569 42.0821 31.493 41.8287C31.4719 41.757 31.4508 41.6767 31.4382 41.6007C31.0413 39.3503 31.3242 37.2857 32.2784 35.4575C32.3881 35.2506 32.6415 35.1704 32.8484 35.2802C33.0552 35.39 33.1355 35.6433 33.0257 35.8502C32.1601 37.5095 31.9068 39.3968 32.2699 41.4572C32.2784 41.4994 32.2868 41.5458 32.2995 41.5881C32.367 41.8161 32.4515 42.0483 32.5444 42.2721C32.633 42.4874 32.5317 42.7365 32.3164 42.8252C32.2615 42.8463 32.2066 42.8589 32.1517 42.8589L32.1559 42.8505Z" fill="#F4F4F4"/>
<path d="M9.96019 16.5636C9.77864 16.5636 9.60975 16.4453 9.55487 16.2596C9.49153 16.0358 9.6182 15.8036 9.84197 15.736C9.85886 15.7318 11.8517 14.786 11.3577 13.0507C11.2944 12.827 11.4253 12.5947 11.6491 12.5272C11.8728 12.4639 12.105 12.5947 12.1726 12.8185C12.789 14.9803 10.6991 16.3651 10.0826 16.5467C10.0446 16.5593 10.0024 16.5636 9.96441 16.5636H9.96019Z" fill="#F4F4F4"/>
<path d="M25.1979 21.9933C25.1979 21.9933 25.1853 21.9933 25.1768 21.9933C22.3775 21.8497 19.2785 20.7477 16.4581 18.8942C16.3272 18.8098 15.4574 18.1807 14.0388 17.1631C12.7552 16.2427 11.041 15.0056 10.6484 14.7354C10.6146 14.7227 10.5808 14.7016 10.5513 14.6763C10.3739 14.5327 10.3106 14.2456 10.4499 14.0641C10.6991 13.7347 10.9735 13.929 11.3493 14.195C11.5519 14.3385 11.8348 14.5412 12.1726 14.7818C12.8439 15.2632 13.7137 15.888 14.5328 16.4749C15.6474 17.2771 16.8001 18.1047 16.9225 18.1849C19.6205 19.9582 22.5675 21.0137 25.2233 21.1488C25.4555 21.1615 25.637 21.3599 25.6244 21.5922C25.6117 21.8159 25.4259 21.9933 25.2021 21.9933H25.1979Z" fill="#F4F4F4"/>
<path d="M7.62541 24.953C7.49875 24.953 7.3763 24.8981 7.29186 24.7925C7.14831 24.6067 7.18208 24.345 7.36364 24.2014C7.3763 24.1887 8.89205 22.5717 7.79852 21.1404C7.65496 20.9546 7.69296 20.6886 7.87874 20.5493C8.06451 20.4057 8.33051 20.4437 8.46984 20.6295C9.82937 22.407 8.39384 24.4759 7.88718 24.8727C7.81118 24.9318 7.7183 24.9614 7.62963 24.9614L7.62541 24.953Z" fill="#F4F4F4"/>
<path d="M23.3356 25.0626C21.271 25.0626 19.0712 24.8178 16.2255 24.5011L14.7604 24.3407C13.5613 24.2098 10.8338 23.682 9.03096 23.3358C8.3343 23.2007 7.67143 23.074 7.57432 23.0613C7.3421 23.036 7.17743 22.8249 7.20277 22.5927C7.2281 22.3605 7.43921 22.1916 7.67142 22.2211C7.79809 22.2338 8.25408 22.3225 9.19562 22.504C10.876 22.8291 13.688 23.3738 14.8575 23.5004L16.3226 23.6609C19.7805 24.0451 22.2801 24.3238 24.6994 24.1802C24.9316 24.1675 25.1342 24.3449 25.1469 24.5771C25.1596 24.8093 24.9822 25.012 24.75 25.0246C24.2814 25.0542 23.8127 25.0669 23.3398 25.0669L23.3356 25.0626Z" fill="#F4F4F4"/>
<path d="M14.2751 9.19578C13.9627 9.19578 13.6334 9.15356 13.2998 9.06912C13.0718 9.01001 12.9367 8.78201 12.9958 8.55401C13.0549 8.32602 13.2829 8.19091 13.5109 8.25002C14.292 8.45268 15.0098 8.35135 15.4827 7.97558C15.8542 7.68003 16.0442 7.24515 16.0315 6.71738C16.0273 6.48516 16.2131 6.29094 16.4453 6.28672C16.686 6.27405 16.8717 6.46827 16.876 6.70049C16.8929 7.49425 16.5846 8.18246 16.0062 8.64268C15.5418 9.01001 14.938 9.2 14.2709 9.2L14.2751 9.19578Z" fill="#F4F4F4"/>
<path d="M26.4052 18.9658C26.3418 18.9658 26.2785 18.9531 26.2194 18.9236C23.399 17.5345 17.8173 12.3919 15.1616 8.73554C14.8829 8.3471 14.6169 7.95021 14.372 7.54911C14.2496 7.35067 14.3129 7.0889 14.5114 6.97068C14.7098 6.84823 14.9716 6.91157 15.0898 7.11001C15.322 7.49 15.5754 7.86999 15.8414 8.24154C18.4338 11.8177 23.8592 16.8294 26.5867 18.1678C26.7978 18.2691 26.8823 18.5225 26.7809 18.7336C26.7092 18.8814 26.5572 18.97 26.4009 18.97L26.4052 18.9658Z" fill="#F4F4F4"/>
<path d="M22.6224 7.24083C22.0144 7.24083 21.3684 7.03817 20.7605 6.64129C20.5662 6.51462 20.5113 6.25285 20.638 6.05863C20.7647 5.86441 21.0265 5.80952 21.2207 5.93619C21.9004 6.37529 22.614 6.5104 23.1797 6.30352C23.6231 6.14307 23.9355 5.79264 24.0917 5.28598C24.1593 5.0622 24.3957 4.93976 24.6195 5.00732C24.8433 5.07487 24.9699 5.31131 24.8982 5.53508C24.6659 6.29085 24.1593 6.84817 23.4669 7.09728C23.2009 7.19439 22.9138 7.24083 22.6182 7.24083H22.6224Z" fill="#F4F4F4"/>
<path d="M29.547 17.2177C29.4414 17.2177 29.3317 17.1754 29.2514 17.0952C25.9793 13.861 23.7542 10.4411 22.6311 6.91983C22.4875 6.46384 22.3567 5.9994 22.2511 5.54341C22.2004 5.31542 22.3398 5.08742 22.5678 5.03675C22.7958 4.98609 23.0195 5.12542 23.0744 5.35342C23.1758 5.7883 23.2982 6.23162 23.4375 6.6665C24.5142 10.0527 26.6717 13.3586 29.8468 16.4957C30.0114 16.6603 30.0156 16.9263 29.8468 17.091C29.7623 17.1754 29.6568 17.2177 29.547 17.2177V17.2177Z" fill="#F4F4F4"/>
</g>
<defs>
<clipPath id="clip0_1357_2414">
<rect width="52" height="52" fill="white"/>
</clipPath>
</defs>
</svg>
