<svg width="30" height="30" viewBox="0 0 30 30" fill="none" xmlns="http://www.w3.org/2000/svg">
<path d="M0 1.84159C0 1.58407 0.1023 1.33709 0.284394 1.155C0.466489 0.972905 0.713462 0.870605 0.970982 0.870605H3.88393C4.10052 0.870665 4.31087 0.943139 4.48153 1.0765C4.65219 1.20986 4.77337 1.39646 4.82578 1.60661L5.61228 4.75453H28.1585C28.3011 4.75467 28.4418 4.78619 28.5709 4.84688C28.6999 4.90756 28.8139 4.99591 28.905 5.10565C28.996 5.21539 29.0617 5.34382 29.0975 5.48183C29.1333 5.61984 29.1382 5.76404 29.112 5.90418L26.199 21.4399C26.1574 21.6624 26.0393 21.8634 25.8652 22.008C25.6911 22.1527 25.4719 22.232 25.2455 22.2322H7.76786C7.54149 22.232 7.3223 22.1527 7.1482 22.008C6.97409 21.8634 6.856 21.6624 6.81435 21.4399L3.90335 5.93331L3.12656 2.81257H0.970982C0.713462 2.81257 0.466489 2.71027 0.284394 2.52818C0.1023 2.34608 0 2.09911 0 1.84159ZM6.02397 6.6965L8.57377 20.2902H24.4396L26.9894 6.6965H6.02397ZM9.70982 22.2322C8.67974 22.2322 7.69185 22.6414 6.96347 23.3698C6.23509 24.0982 5.82589 25.0861 5.82589 26.1161C5.82589 27.1462 6.23509 28.1341 6.96347 28.8625C7.69185 29.5909 8.67974 30.0001 9.70982 30.0001C10.7399 30.0001 11.7278 29.5909 12.4562 28.8625C13.1846 28.1341 13.5937 27.1462 13.5937 26.1161C13.5937 25.0861 13.1846 24.0982 12.4562 23.3698C11.7278 22.6414 10.7399 22.2322 9.70982 22.2322ZM23.3036 22.2322C22.2735 22.2322 21.2856 22.6414 20.5572 23.3698C19.8288 24.0982 19.4196 25.0861 19.4196 26.1161C19.4196 27.1462 19.8288 28.1341 20.5572 28.8625C21.2856 29.5909 22.2735 30.0001 23.3036 30.0001C24.3337 30.0001 25.3215 29.5909 26.0499 28.8625C26.7783 28.1341 27.1875 27.1462 27.1875 26.1161C27.1875 25.0861 26.7783 24.0982 26.0499 23.3698C25.3215 22.6414 24.3337 22.2322 23.3036 22.2322ZM9.70982 24.1742C10.2249 24.1742 10.7188 24.3788 11.083 24.743C11.4472 25.1072 11.6518 25.6011 11.6518 26.1161C11.6518 26.6312 11.4472 27.1251 11.083 27.4893C10.7188 27.8535 10.2249 28.0581 9.70982 28.0581C9.19478 28.0581 8.70083 27.8535 8.33665 27.4893C7.97246 27.1251 7.76786 26.6312 7.76786 26.1161C7.76786 25.6011 7.97246 25.1072 8.33665 24.743C8.70083 24.3788 9.19478 24.1742 9.70982 24.1742ZM23.3036 24.1742C23.8186 24.1742 24.3126 24.3788 24.6767 24.743C25.0409 25.1072 25.2455 25.6011 25.2455 26.1161C25.2455 26.6312 25.0409 27.1251 24.6767 27.4893C24.3126 27.8535 23.8186 28.0581 23.3036 28.0581C22.7885 28.0581 22.2946 27.8535 21.9304 27.4893C21.5662 27.1251 21.3616 26.6312 21.3616 26.1161C21.3616 25.6011 21.5662 25.1072 21.9304 24.743C22.2946 24.3788 22.7885 24.1742 23.3036 24.1742V24.1742Z" fill="#F4F4F4"/>
</svg>
