<svg width="30" height="30" viewBox="0 0 30 30" fill="none" xmlns="http://www.w3.org/2000/svg">
<path d="M5.56875 1.55029C5.74479 1.33713 5.96332 1.166 6.20931 1.04867C6.45531 0.931334 6.72292 0.870587 6.99375 0.870605H23.0063C23.2771 0.870587 23.5447 0.931334 23.7907 1.04867C24.0367 1.166 24.2552 1.33713 24.4312 1.55029L29.3231 7.46163C29.7599 7.98952 30 8.66179 30 9.35699V9.85219C30.0001 10.8134 29.7102 11.7507 29.1709 12.5329C28.6316 13.3152 27.8698 13.9034 26.9919 14.2153C26.114 14.5272 25.164 14.5472 24.2746 14.2726C23.3852 13.998 22.6009 13.4424 22.0312 12.6836C21.6153 13.2385 21.0822 13.6875 20.4728 13.9962C19.8634 14.3049 19.194 14.465 18.5156 14.4644C17.8373 14.4651 17.1677 14.3051 16.5583 13.9964C15.949 13.6877 15.4159 13.2386 15 12.6836C14.5841 13.2386 14.051 13.6877 13.4417 13.9964C12.8323 14.3051 12.1627 14.4651 11.4844 14.4644C10.806 14.4651 10.1365 14.3051 9.52709 13.9964C8.91771 13.6877 8.38464 13.2386 7.96875 12.6836C7.39911 13.4424 6.61478 13.998 5.72538 14.2726C4.83599 14.5472 3.88597 14.5272 3.00811 14.2153C2.13025 13.9034 1.36842 13.3152 0.829092 12.5329C0.289766 11.7507 -0.000102372 10.8134 2.7121e-08 9.85219V9.35699C2.36391e-05 8.66179 0.240106 7.98952 0.676875 7.46163L5.57062 1.54835L5.56875 1.55029ZM8.90625 9.85219C8.90625 10.5604 9.17787 11.2395 9.66137 11.7403C10.1449 12.2411 10.8006 12.5224 11.4844 12.5224C12.1681 12.5224 12.8239 12.2411 13.3074 11.7403C13.7909 11.2395 14.0625 10.5604 14.0625 9.85219C14.0625 9.59467 14.1613 9.3477 14.3371 9.1656C14.5129 8.98351 14.7514 8.88121 15 8.88121C15.2486 8.88121 15.4871 8.98351 15.6629 9.1656C15.8387 9.3477 15.9375 9.59467 15.9375 9.85219C15.9375 10.5604 16.2091 11.2395 16.6926 11.7403C17.1761 12.2411 17.8319 12.5224 18.5156 12.5224C19.1994 12.5224 19.8551 12.2411 20.3386 11.7403C20.8221 11.2395 21.0938 10.5604 21.0938 9.85219C21.0938 9.59467 21.1925 9.3477 21.3683 9.1656C21.5442 8.98351 21.7826 8.88121 22.0312 8.88121C22.2799 8.88121 22.5183 8.98351 22.6942 9.1656C22.87 9.3477 22.9688 9.59467 22.9688 9.85219C22.9688 10.5604 23.2404 11.2395 23.7239 11.7403C24.2074 12.2411 24.8631 12.5224 25.5469 12.5224C26.2306 12.5224 26.8864 12.2411 27.3699 11.7403C27.8534 11.2395 28.125 10.5604 28.125 9.85219V9.35699C28.125 9.12556 28.0452 8.90174 27.9 8.72585L23.0063 2.81257H6.99375L2.1 8.72585C1.95478 8.90174 1.87498 9.12556 1.875 9.35699V9.85219C1.875 10.5604 2.14662 11.2395 2.63012 11.7403C3.11361 12.2411 3.76936 12.5224 4.45312 12.5224C5.13689 12.5224 5.79264 12.2411 6.27613 11.7403C6.75963 11.2395 7.03125 10.5604 7.03125 9.85219C7.03125 9.59467 7.13002 9.3477 7.30584 9.1656C7.48165 8.98351 7.72011 8.88121 7.96875 8.88121C8.21739 8.88121 8.45585 8.98351 8.63166 9.1656C8.80748 9.3477 8.90625 9.59467 8.90625 9.85219ZM2.8125 15.4353C3.06114 15.4353 3.2996 15.5376 3.47541 15.7197C3.65123 15.9018 3.75 16.1488 3.75 16.4063V28.0581H26.25V16.4063C26.25 16.1488 26.3488 15.9018 26.5246 15.7197C26.7004 15.5376 26.9389 15.4353 27.1875 15.4353C27.4361 15.4353 27.6746 15.5376 27.8504 15.7197C28.0262 15.9018 28.125 16.1488 28.125 16.4063V28.0581H29.0625C29.3111 28.0581 29.5496 28.1604 29.7254 28.3425C29.9012 28.5246 30 28.7716 30 29.0291C30 29.2866 29.9012 29.5336 29.7254 29.7157C29.5496 29.8978 29.3111 30.0001 29.0625 30.0001H0.9375C0.68886 30.0001 0.450403 29.8978 0.274587 29.7157C0.0987721 29.5336 2.7121e-08 29.2866 2.7121e-08 29.0291C2.7121e-08 28.7716 0.0987721 28.5246 0.274587 28.3425C0.450403 28.1604 0.68886 28.0581 0.9375 28.0581H1.875V16.4063C1.875 16.1488 1.97377 15.9018 2.14959 15.7197C2.3254 15.5376 2.56386 15.4353 2.8125 15.4353ZM6.5625 16.4063C6.81114 16.4063 7.0496 16.5086 7.22541 16.6907C7.40123 16.8728 7.5 17.1198 7.5 17.3773V24.1742H22.5V17.3773C22.5 17.1198 22.5988 16.8728 22.7746 16.6907C22.9504 16.5086 23.1889 16.4063 23.4375 16.4063C23.6861 16.4063 23.9246 16.5086 24.1004 16.6907C24.2762 16.8728 24.375 17.1198 24.375 17.3773V24.1742C24.375 24.6892 24.1775 25.1832 23.8258 25.5474C23.4742 25.9115 22.9973 26.1161 22.5 26.1161H7.5C7.00272 26.1161 6.52581 25.9115 6.17417 25.5474C5.82254 25.1832 5.625 24.6892 5.625 24.1742V17.3773C5.625 17.1198 5.72377 16.8728 5.89959 16.6907C6.0754 16.5086 6.31386 16.4063 6.5625 16.4063Z" fill="#F4F4F4"/>
</svg>
