<svg width="22" height="24" viewBox="0 0 22 24" fill="none" xmlns="http://www.w3.org/2000/svg">
    <path d="M8.75 1.5H13.25C13.4489 1.5 13.6397 1.57902 13.7803 1.71967C13.921 1.86032 14 2.05109 14 2.25V3.75H8V2.25C8 2.05109 8.07902 1.86032 8.21967 1.71967C8.36032 1.57902 8.55109 1.5 8.75 1.5ZM15.5 3.75V2.25C15.5 1.65326 15.2629 1.08097 14.841 0.65901C14.419 0.237053 13.8467 0 13.25 0L8.75 0C8.15326 0 7.58097 0.237053 7.15901 0.65901C6.73705 1.08097 6.5 1.65326 6.5 2.25V3.75H2.759C2.754 3.74996 2.749 3.74996 2.744 3.75H1.25C1.05109 3.75 0.860322 3.82902 0.71967 3.96967C0.579018 4.11032 0.5 4.30109 0.5 4.5C0.5 4.69891 0.579018 4.88968 0.71967 5.03033C0.860322 5.17098 1.05109 5.25 1.25 5.25H2.057L3.3365 21.24C3.39684 21.9918 3.73813 22.6933 4.29241 23.2048C4.84669 23.7162 5.57329 24.0002 6.3275 24H15.6725C16.4267 24.0002 17.1533 23.7162 17.7076 23.2048C18.2619 22.6933 18.6032 21.9918 18.6635 21.24L19.943 5.25H20.75C20.9489 5.25 21.1397 5.17098 21.2803 5.03033C21.421 4.88968 21.5 4.69891 21.5 4.5C21.5 4.30109 21.421 4.11032 21.2803 3.96967C21.1397 3.82902 20.9489 3.75 20.75 3.75H19.2575C19.2525 3.74996 19.2475 3.74996 19.2425 3.75H15.5ZM18.437 5.25L17.168 21.12C17.1378 21.4959 16.9672 21.8466 16.69 22.1024C16.4129 22.3581 16.0496 22.5001 15.6725 22.5H6.3275C5.9504 22.5001 5.5871 22.3581 5.30996 22.1024C5.03282 21.8466 4.86217 21.4959 4.832 21.12L3.563 5.25H18.437ZM7.2065 6.75C7.405 6.73853 7.59993 6.80634 7.74845 6.93855C7.89696 7.07075 7.9869 7.25651 7.9985 7.455L8.7485 20.205C8.75638 20.4012 8.68702 20.5926 8.55533 20.7382C8.42363 20.8838 8.24009 20.972 8.04411 20.9838C7.84814 20.9955 7.65536 20.93 7.50716 20.8012C7.35897 20.6725 7.26718 20.4907 7.2515 20.295L6.5 7.545C6.49391 7.44647 6.50733 7.34771 6.5395 7.25437C6.57166 7.16104 6.62193 7.07498 6.68743 7.00112C6.75293 6.92726 6.83236 6.86705 6.92118 6.82396C7.01 6.78087 7.10645 6.75573 7.205 6.75H7.2065ZM14.7935 6.75C14.8921 6.75573 14.9885 6.78087 15.0773 6.82396C15.1661 6.86705 15.2456 6.92726 15.3111 7.00112C15.3766 7.07498 15.4268 7.16104 15.459 7.25437C15.4912 7.34771 15.5046 7.44647 15.4985 7.545L14.7485 20.295C14.7445 20.3947 14.7207 20.4925 14.6784 20.5829C14.6361 20.6732 14.5762 20.7542 14.5022 20.8211C14.4282 20.888 14.3417 20.9395 14.2475 20.9726C14.1534 21.0056 14.0537 21.0195 13.9541 21.0135C13.8545 21.0076 13.7572 20.9818 13.6677 20.9377C13.5782 20.8936 13.4984 20.8321 13.433 20.7568C13.3676 20.6815 13.3178 20.594 13.2866 20.4992C13.2555 20.4044 13.2435 20.3044 13.2515 20.205L14.0015 7.455C14.0131 7.25651 14.103 7.07075 14.2516 6.93855C14.4001 6.80634 14.595 6.73853 14.7935 6.75ZM11 6.75C11.1989 6.75 11.3897 6.82902 11.5303 6.96967C11.671 7.11032 11.75 7.30109 11.75 7.5V20.25C11.75 20.4489 11.671 20.6397 11.5303 20.7803C11.3897 20.921 11.1989 21 11 21C10.8011 21 10.6103 20.921 10.4697 20.7803C10.329 20.6397 10.25 20.4489 10.25 20.25V7.5C10.25 7.30109 10.329 7.11032 10.4697 6.96967C10.6103 6.82902 10.8011 6.75 11 6.75Z" fill="url(#paint0_linear_1357_3576)"/>
    <defs>
        <linearGradient id="paint0_linear_1357_3576" x1="11" y1="0" x2="11" y2="24" gradientUnits="userSpaceOnUse">
            <stop stop-color="#E70000"/>
            <stop offset="1" stop-color="#B70000"/>
        </linearGradient>
    </defs>
</svg>
