<svg width="8" height="10" viewBox="0 0 8 10" fill="none" xmlns="http://www.w3.org/2000/svg">
<path fill-rule="evenodd" clip-rule="evenodd" d="M5.22132 1.02882C5.25042 1.05785 5.27351 1.09233 5.28926 1.1303C5.30502 1.16827 5.31313 1.20897 5.31313 1.25007C5.31313 1.29117 5.30502 1.33188 5.28926 1.36984C5.27351 1.40781 5.25042 1.44229 5.22132 1.47132L1.69195 5.00007L5.22132 8.52882C5.28 8.5875 5.31296 8.66709 5.31296 8.75007C5.31296 8.83306 5.28 8.91264 5.22132 8.97132C5.16264 9.03 5.08305 9.06296 5.00007 9.06296C4.91708 9.06296 4.8375 9.03 4.77882 8.97132L1.02882 5.22132C0.999718 5.19229 0.976629 5.15781 0.960875 5.11984C0.945121 5.08188 0.937012 5.04117 0.937012 5.00007C0.937012 4.95897 0.945121 4.91827 0.960875 4.8803C0.976629 4.84233 0.999718 4.80785 1.02882 4.77882L4.77882 1.02882C4.80785 0.999718 4.84233 0.976629 4.8803 0.960875C4.91826 0.945121 4.95897 0.937012 5.00007 0.937012C5.04117 0.937012 5.08187 0.945121 5.11984 0.960875C5.15781 0.976629 5.19229 0.999718 5.22132 1.02882V1.02882Z" fill="url(#paint0_linear_1357_2362)"/>
<path fill-rule="evenodd" clip-rule="evenodd" d="M7.72132 1.02882C7.75042 1.05785 7.77351 1.09233 7.78926 1.1303C7.80502 1.16827 7.81313 1.20897 7.81313 1.25007C7.81313 1.29117 7.80502 1.33188 7.78926 1.36984C7.77351 1.40781 7.75042 1.44229 7.72132 1.47132L4.19195 5.00007L7.72132 8.52882C7.75037 8.55788 7.77342 8.59237 7.78915 8.63033C7.80487 8.66829 7.81296 8.70898 7.81296 8.75007C7.81296 8.79116 7.80487 8.83185 7.78915 8.86981C7.77342 8.90777 7.75037 8.94227 7.72132 8.97132C7.69226 9.00038 7.65777 9.02342 7.61981 9.03915C7.58185 9.05487 7.54116 9.06296 7.50007 9.06296C7.45898 9.06296 7.41829 9.05487 7.38033 9.03915C7.34237 9.02342 7.30787 9.00038 7.27882 8.97132L3.52882 5.22132C3.49972 5.19229 3.47663 5.15781 3.46087 5.11984C3.44512 5.08188 3.43701 5.04117 3.43701 5.00007C3.43701 4.95897 3.44512 4.91827 3.46087 4.8803C3.47663 4.84233 3.49972 4.80785 3.52882 4.77882L7.27882 1.02882C7.30785 0.999718 7.34233 0.976629 7.3803 0.960875C7.41826 0.945121 7.45897 0.937012 7.50007 0.937012C7.54117 0.937012 7.58187 0.945121 7.61984 0.960875C7.65781 0.976629 7.69229 0.999718 7.72132 1.02882V1.02882Z" fill="url(#paint1_linear_1357_2362)"/>
<defs>
<linearGradient id="paint0_linear_1357_2362" x1="3.12507" y1="0.937012" x2="3.12507" y2="9.06296" gradientUnits="userSpaceOnUse">
<stop stop-color="#5A8FFF"/>
<stop offset="1" stop-color="#003094"/>
</linearGradient>
<linearGradient id="paint1_linear_1357_2362" x1="5.62507" y1="0.937012" x2="5.62507" y2="9.06296" gradientUnits="userSpaceOnUse">
<stop stop-color="#5A8FFF"/>
<stop offset="1" stop-color="#003094"/>
</linearGradient>
</defs>
</svg>
