<svg width="4" height="8" viewBox="0 0 4 8" fill="none" xmlns="http://www.w3.org/2000/svg">
<path fill-rule="evenodd" clip-rule="evenodd" d="M0.0729586 1.823C0.049677 1.84622 0.0312055 1.87381 0.0186023 1.90418C0.00599903 1.93456 -0.000488281 1.96712 -0.000488281 2C-0.000488281 2.03288 0.00599903 2.06544 0.0186023 2.09582C0.0312055 2.12619 0.049677 2.15378 0.0729586 2.177L1.89646 4L0.0729586 5.823C0.0260153 5.86994 -0.000357152 5.93361 -0.000357151 6C-0.000357151 6.06639 0.0260153 6.13006 0.0729586 6.177C0.119902 6.22394 0.183571 6.25032 0.249959 6.25032C0.316347 6.25032 0.380015 6.22394 0.426959 6.177L2.42696 4.177C2.45024 4.15378 2.46871 4.12619 2.48131 4.09582C2.49392 4.06544 2.50041 4.03288 2.50041 4C2.50041 3.96712 2.49392 3.93456 2.48131 3.90418C2.46871 3.87381 2.45024 3.84622 2.42696 3.823L0.426959 1.823C0.403736 1.79972 0.376148 1.78125 0.345775 1.76864C0.315403 1.75604 0.282842 1.74955 0.249959 1.74955C0.217075 1.74955 0.184514 1.75604 0.154142 1.76864C0.123769 1.78125 0.0961814 1.79972 0.0729586 1.823ZM3.74996 0.5C3.81626 0.5 3.87985 0.526339 3.92674 0.573223C3.97362 0.620107 3.99996 0.683696 3.99996 0.75V7.25C3.99996 7.3163 3.97362 7.37989 3.92674 7.42678C3.87985 7.47366 3.81626 7.5 3.74996 7.5C3.68365 7.5 3.62007 7.47366 3.57318 7.42678C3.5263 7.37989 3.49996 7.3163 3.49996 7.25V0.75C3.49996 0.683696 3.5263 0.620107 3.57318 0.573223C3.62007 0.526339 3.68365 0.5 3.74996 0.5Z" fill="url(#paint0_linear_1478_2686)"/>
<defs>
<linearGradient id="paint0_linear_1478_2686" x1="1.99974" y1="0.5" x2="1.99974" y2="7.5" gradientUnits="userSpaceOnUse">
<stop stop-color="#5A8FFF"/>
<stop offset="1" stop-color="#003094"/>
</linearGradient>
</defs>
</svg>
