<svg width="5" height="14" viewBox="0 0 5 14" fill="none" xmlns="http://www.w3.org/2000/svg">
<path fill-rule="evenodd" clip-rule="evenodd" d="M0.775805 13.4469C0.657517 13.3875 0.567616 13.2836 0.525813 13.158C0.48401 13.0324 0.493717 12.8954 0.552805 12.7769L3.4398 6.99993L0.551805 1.22393C0.521786 1.16517 0.503695 1.10104 0.498577 1.03526C0.493458 0.969468 0.501412 0.903317 0.52198 0.840618C0.542548 0.777919 0.575323 0.719911 0.618417 0.669938C0.66151 0.619966 0.714069 0.579019 0.773063 0.549456C0.832057 0.519893 0.896319 0.502299 0.962145 0.49769C1.02797 0.493081 1.09406 0.501547 1.1566 0.5226C1.21913 0.543653 1.27689 0.576878 1.32652 0.620357C1.37616 0.663835 1.4167 0.71671 1.4458 0.775931L4.44581 6.77593C4.48065 6.84546 4.49879 6.92216 4.49879 6.99993C4.49879 7.0777 4.48065 7.1544 4.44581 7.22393L1.44581 13.2239C1.38639 13.3422 1.2825 13.4321 1.1569 13.4739C1.0313 13.5157 0.894256 13.506 0.775805 13.4469Z" fill="url(#paint0_linear_1481_4609)"/>
<defs>
<linearGradient id="paint0_linear_1481_4609" x1="0.49707" y1="6.99799" x2="4.49879" y2="6.99799" gradientUnits="userSpaceOnUse">
<stop stop-color="#5A8FFF"/>
<stop offset="1" stop-color="#003094"/>
</linearGradient>
</defs>
</svg>
