<svg width="14" height="5" viewBox="0 0 14 5" fill="none" xmlns="http://www.w3.org/2000/svg">
<path fill-rule="evenodd" clip-rule="evenodd" d="M0.553069 0.775805C0.612482 0.657517 0.716377 0.567616 0.841974 0.525813C0.96757 0.48401 1.10462 0.493717 1.22307 0.552805L7.00007 3.43981L12.7761 0.551805C12.8348 0.521786 12.899 0.503696 12.9647 0.498577C13.0305 0.493458 13.0967 0.501412 13.1594 0.52198C13.2221 0.542548 13.2801 0.575324 13.3301 0.618417C13.38 0.661511 13.421 0.71407 13.4505 0.773064C13.4801 0.832058 13.4977 0.89632 13.5023 0.962145C13.5069 1.02797 13.4985 1.09406 13.4774 1.1566C13.4563 1.21913 13.4231 1.27689 13.3796 1.32652C13.3362 1.37616 13.2833 1.4167 13.2241 1.44581L7.22407 4.44581C7.15454 4.48065 7.07784 4.49879 7.00007 4.49879C6.9223 4.49879 6.8456 4.48065 6.77607 4.44581L0.776069 1.44581C0.657781 1.38639 0.567879 1.2825 0.526076 1.1569C0.484273 1.0313 0.49398 0.894256 0.553069 0.775805Z" fill="url(#paint0_linear_1357_3333)"/>
<defs>
<linearGradient id="paint0_linear_1357_3333" x1="7.00201" y1="0.49707" x2="7.00201" y2="4.49879" gradientUnits="userSpaceOnUse">
<stop stop-color="#5A8FFF"/>
<stop offset="1" stop-color="#003094"/>
</linearGradient>
</defs>
</svg>
