<svg width="8" height="8" viewBox="0 0 8 8" fill="none" xmlns="http://www.w3.org/2000/svg">
<path d="M0.226779 0.226779C0.27903 0.174395 0.341103 0.132834 0.409441 0.104477C0.477779 0.0761196 0.551041 0.0615234 0.625029 0.0615234C0.699017 0.0615234 0.772278 0.0761196 0.840617 0.104477C0.908955 0.132834 0.971027 0.174395 1.02328 0.226779L4.00003 3.20465L6.97678 0.226779C7.02908 0.17448 7.09117 0.132994 7.1595 0.10469C7.22783 0.0763859 7.30107 0.0618179 7.37503 0.0618179C7.44899 0.0618179 7.52223 0.0763859 7.59056 0.10469C7.65889 0.132994 7.72098 0.17448 7.77328 0.226779C7.82558 0.279078 7.86706 0.341165 7.89537 0.409497C7.92367 0.477829 7.93824 0.551067 7.93824 0.625029C7.93824 0.698991 7.92367 0.772228 7.89537 0.84056C7.86706 0.908892 7.82558 0.97098 7.77328 1.02328L4.7954 4.00003L7.77328 6.97678C7.82558 7.02908 7.86706 7.09117 7.89537 7.1595C7.92367 7.22783 7.93824 7.30107 7.93824 7.37503C7.93824 7.44899 7.92367 7.52223 7.89537 7.59056C7.86706 7.65889 7.82558 7.72098 7.77328 7.77328C7.72098 7.82558 7.65889 7.86706 7.59056 7.89537C7.52223 7.92367 7.44899 7.93824 7.37503 7.93824C7.30107 7.93824 7.22783 7.92367 7.1595 7.89537C7.09117 7.86706 7.02908 7.82558 6.97678 7.77328L4.00003 4.7954L1.02328 7.77328C0.97098 7.82558 0.908892 7.86706 0.84056 7.89537C0.772228 7.92367 0.698991 7.93824 0.625029 7.93824C0.551067 7.93824 0.477829 7.92367 0.409497 7.89537C0.341165 7.86706 0.279078 7.82558 0.226779 7.77328C0.17448 7.72098 0.132994 7.65889 0.10469 7.59056C0.0763859 7.52223 0.0618179 7.44899 0.0618179 7.37503C0.0618179 7.30107 0.0763859 7.22783 0.10469 7.1595C0.132994 7.09117 0.17448 7.02908 0.226779 6.97678L3.20465 4.00003L0.226779 1.02328C0.174395 0.971027 0.132834 0.908955 0.104477 0.840617C0.0761196 0.772278 0.0615234 0.699017 0.0615234 0.625029C0.0615234 0.551041 0.0761196 0.477779 0.104477 0.409441C0.132834 0.341103 0.174395 0.27903 0.226779 0.226779Z" fill="url(#paint0_linear_1357_2230)"/>
<defs>
<linearGradient id="paint0_linear_1357_2230" x1="3.99988" y1="0.0615234" x2="3.99988" y2="7.93824" gradientUnits="userSpaceOnUse">
<stop stop-color="#E70000"/>
<stop offset="1" stop-color="#B70000"/>
</linearGradient>
</defs>
</svg>
