<svg width="13" height="7" viewBox="0 0 13 7" fill="none" xmlns="http://www.w3.org/2000/svg">
<path d="M12.7656 6.5C12.7656 6.36739 12.7129 6.24021 12.6192 6.14645C12.5254 6.05268 12.3982 6 12.2656 6H9.26563C9.13302 6 9.00584 6.05268 8.91207 6.14645C8.8183 6.24021 8.76563 6.36739 8.76563 6.5C8.76563 6.63261 8.8183 6.75979 8.91207 6.85355C9.00584 6.94732 9.13302 7 9.26563 7H12.2656C12.3982 7 12.5254 6.94732 12.6192 6.85355C12.7129 6.75979 12.7656 6.63261 12.7656 6.5ZM12.7656 3.5C12.7656 3.36739 12.7129 3.24021 12.6192 3.14645C12.5254 3.05268 12.3982 3 12.2656 3H5.26563C5.13302 3 5.00584 3.05268 4.91207 3.14645C4.8183 3.24021 4.76563 3.36739 4.76563 3.5C4.76563 3.63261 4.8183 3.75979 4.91207 3.85355C5.00584 3.94732 5.13302 4 5.26563 4H12.2656C12.3982 4 12.5254 3.94732 12.6192 3.85355C12.7129 3.75979 12.7656 3.63261 12.7656 3.5ZM12.7656 0.5C12.7656 0.367392 12.7129 0.240215 12.6192 0.146447C12.5254 0.0526785 12.3982 0 12.2656 0H1.26563C1.13302 0 1.00584 0.0526785 0.912072 0.146447C0.818304 0.240215 0.765625 0.367392 0.765625 0.5C0.765625 0.632608 0.818304 0.759785 0.912072 0.853553C1.00584 0.947321 1.13302 1 1.26563 1H12.2656C12.3982 1 12.5254 0.947321 12.6192 0.853553C12.7129 0.759785 12.7656 0.632608 12.7656 0.5Z" fill="#B4B4B4"/>
</svg>
