<svg width="12" height="7" viewBox="0 0 12 7" fill="none" xmlns="http://www.w3.org/2000/svg">
<path d="M12 6.5C12 6.36739 11.9473 6.24021 11.8536 6.14645C11.7598 6.05268 11.6326 6 11.5 6H8.5C8.36739 6 8.24022 6.05268 8.14645 6.14645C8.05268 6.24021 8 6.36739 8 6.5C8 6.63261 8.05268 6.75979 8.14645 6.85355C8.24022 6.94732 8.36739 7 8.5 7H11.5C11.6326 7 11.7598 6.94732 11.8536 6.85355C11.9473 6.75979 12 6.63261 12 6.5ZM12 3.5C12 3.36739 11.9473 3.24021 11.8536 3.14645C11.7598 3.05268 11.6326 3 11.5 3H4.5C4.36739 3 4.24022 3.05268 4.14645 3.14645C4.05268 3.24021 4 3.36739 4 3.5C4 3.63261 4.05268 3.75979 4.14645 3.85355C4.24022 3.94732 4.36739 4 4.5 4H11.5C11.6326 4 11.7598 3.94732 11.8536 3.85355C11.9473 3.75979 12 3.63261 12 3.5ZM12 0.5C12 0.367392 11.9473 0.240215 11.8536 0.146447C11.7598 0.0526785 11.6326 0 11.5 0H0.5C0.367392 0 0.240215 0.0526785 0.146447 0.146447C0.0526785 0.240215 0 0.367392 0 0.5C0 0.632608 0.0526785 0.759785 0.146447 0.853553C0.240215 0.947321 0.367392 1 0.5 1H11.5C11.6326 1 11.7598 0.947321 11.8536 0.853553C11.9473 0.759785 12 0.632608 12 0.5Z" fill="url(#paint0_linear_1481_4864)"/>
<defs>
<linearGradient id="paint0_linear_1481_4864" x1="6" y1="0" x2="6" y2="7" gradientUnits="userSpaceOnUse">
<stop stop-color="#5A8FFF"/>
<stop offset="1" stop-color="#003094"/>
</linearGradient>
</defs>
</svg>
