<svg width="30" height="31" viewBox="0 0 30 31" fill="none" xmlns="http://www.w3.org/2000/svg">
<path d="M14.9999 0.00146484C14.6699 0.00146484 14.3436 0.0127149 14.0193 0.03334L14.1393 1.9046C14.7124 1.86756 15.2874 1.86756 15.8605 1.9046L15.9805 0.03334C15.6541 0.0121735 15.327 0.00154287 14.9999 0.00146484V0.00146484ZM12.0749 0.286467C11.4261 0.415842 10.7923 0.586468 10.1773 0.79272L10.7792 2.57023C11.3174 2.38648 11.8705 2.23835 12.4367 2.12585L12.0749 0.288342V0.286467ZM19.8224 0.794595C19.2024 0.584375 18.5691 0.415257 17.9268 0.288342L17.563 2.12585C18.1293 2.23835 18.6824 2.38835 19.2205 2.57023L19.8224 0.794595ZM23.3343 2.52898C22.7901 2.16475 22.2227 1.83654 21.6356 1.54647L20.8049 3.22648C21.3206 3.48149 21.8174 3.77024 22.2918 4.08711L23.3343 2.52898ZM8.36233 1.54647C7.77358 1.8371 7.20732 2.16523 6.66544 2.52898L7.70795 4.08524C8.1845 3.76716 8.68117 3.4803 9.19484 3.22648L8.36233 1.54647ZM5.10918 3.72336C4.61793 4.15462 4.15292 4.61962 3.72167 5.11087L5.13168 6.34838C5.51043 5.91713 5.91544 5.51212 6.34669 5.13337L5.10918 3.72336ZM26.2781 5.11087C25.8461 4.61879 25.3827 4.15531 24.8906 3.72336L23.6531 5.13337C24.0843 5.51212 24.4912 5.91713 24.8681 6.34838L26.2781 5.11087ZM28.455 8.36402C28.1649 7.77751 27.8367 7.21067 27.4725 6.66713L25.9162 7.70964C26.2331 8.18402 26.52 8.68089 26.775 9.19652L28.455 8.36589V8.36402ZM2.52729 6.66713C2.16353 7.20901 1.83353 7.77526 1.54478 8.36589L3.22479 9.19652C3.47979 8.68089 3.76855 8.18402 4.08542 7.70964L2.52729 6.66713ZM0.792897 10.179C0.582671 10.7991 0.413553 11.4323 0.286643 12.0747L2.12416 12.4384C2.23666 11.8722 2.38666 11.319 2.56854 10.7809L0.792897 10.179ZM29.715 12.0765C29.5882 11.4336 29.4191 10.7997 29.2087 10.179L27.4312 10.7809C27.615 11.319 27.7631 11.8722 27.8756 12.4384L29.7131 12.0747L29.715 12.0765ZM0.0316409 14.0209C-0.010547 14.674 -0.010547 15.3291 0.0316409 15.9822L1.90291 15.8622C1.86586 15.289 1.86586 14.7141 1.90291 14.1409L0.0316409 14.0209ZM30 15.0016C29.9999 14.6744 29.9893 14.3474 29.9681 14.0209L28.0969 14.1409C28.1339 14.7141 28.1339 15.289 28.0969 15.8622L29.9681 15.9822C29.9893 15.6557 29.9999 15.3287 30 15.0016ZM0.284768 17.9266C0.414144 18.5753 0.58477 19.2091 0.791022 19.8241L2.56854 19.2222C2.38412 18.6801 2.23567 18.1264 2.12416 17.5647L0.286643 17.9284L0.284768 17.9266ZM29.2069 19.8241C29.4169 19.2091 29.5856 18.5753 29.7131 17.9284L27.8756 17.5647C27.7631 18.131 27.6131 18.6841 27.4312 19.2222L29.2069 19.8241ZM1.54478 21.6391C1.83492 22.2255 2.16312 22.7924 2.52729 23.336L4.08355 22.2935C3.76514 21.8171 3.47828 21.3204 3.22479 20.8066L1.54478 21.6372V21.6391ZM27.4725 23.336C27.8362 22.7941 28.1662 22.2279 28.455 21.6372L26.775 20.8066C26.52 21.3222 26.2312 21.8191 25.9143 22.2935L27.4725 23.336ZM3.72167 24.8922C4.15292 25.3835 4.61793 25.8485 5.10918 26.2798L6.34669 24.8697C5.91575 24.4915 5.50989 24.0857 5.13168 23.6547L3.72167 24.8922ZM24.8906 26.2798C25.3818 25.8485 25.8468 25.3835 26.2781 24.8922L24.8681 23.6547C24.4912 24.086 24.0843 24.4929 23.6531 24.8697L24.8906 26.2798ZM21.6374 28.4566C22.2262 28.166 22.7924 27.8379 23.3343 27.4741L22.2918 25.9179C21.8153 26.236 21.3186 26.5228 20.8049 26.7766L21.6356 28.4566H21.6374ZM6.66544 27.4741C7.20732 27.8379 7.77358 28.1679 8.36421 28.4566L9.19484 26.7766C8.68094 26.5225 8.18425 26.2351 7.70795 25.916L6.66544 27.4741ZM10.1773 29.2085C10.7923 29.4185 11.4261 29.5873 12.073 29.7148L12.4367 27.8773C11.8751 27.7657 11.3214 27.6173 10.7792 27.4329L10.1773 29.2085ZM17.9249 29.7166C18.5679 29.5898 19.2017 29.4207 19.8224 29.2104L19.2205 27.4329C18.6784 27.6172 18.1247 27.7657 17.563 27.8773L17.9268 29.7148L17.9249 29.7166ZM14.0193 29.9698C14.6723 30.012 15.3274 30.012 15.9805 29.9698L15.8605 28.0985C15.2874 28.1356 14.7124 28.1356 14.1393 28.0985L14.0193 29.9698ZM15.9374 8.43902C15.9374 8.19038 15.8386 7.95192 15.6628 7.7761C15.487 7.60028 15.2485 7.50151 14.9999 7.50151C14.7512 7.50151 14.5128 7.60028 14.337 7.7761C14.1611 7.95192 14.0624 8.19038 14.0624 8.43902V14.0641H8.43733C8.18869 14.0641 7.95023 14.1628 7.77441 14.3386C7.5986 14.5145 7.49982 14.7529 7.49982 15.0016C7.49982 15.2502 7.5986 15.4887 7.77441 15.6645C7.95023 15.8403 8.18869 15.9391 8.43733 15.9391H14.0624V21.5641C14.0624 21.8127 14.1611 22.0512 14.337 22.227C14.5128 22.4028 14.7512 22.5016 14.9999 22.5016C15.2485 22.5016 15.487 22.4028 15.6628 22.227C15.8386 22.0512 15.9374 21.8127 15.9374 21.5641V15.9391H21.5624C21.8111 15.9391 22.0495 15.8403 22.2254 15.6645C22.4012 15.4887 22.4999 15.2502 22.4999 15.0016C22.4999 14.7529 22.4012 14.5145 22.2254 14.3386C22.0495 14.1628 21.8111 14.0641 21.5624 14.0641H15.9374V8.43902Z" fill="#919090"/>
</svg>
