<svg width="8" height="14" viewBox="0 0 8 14" fill="none" xmlns="http://www.w3.org/2000/svg">
<path fill-rule="evenodd" clip-rule="evenodd" d="M0.646083 0.645917C0.59952 0.692363 0.562577 0.747539 0.537371 0.808284C0.512164 0.869029 0.499189 0.93415 0.499189 0.999917C0.499189 1.06568 0.512164 1.13081 0.537371 1.19155C0.562577 1.2523 0.59952 1.30747 0.646083 1.35392L6.29308 6.99992L0.646083 12.6459C0.552196 12.7398 0.499452 12.8671 0.499452 12.9999C0.499452 13.1327 0.552196 13.26 0.646083 13.3539C0.73997 13.4478 0.867307 13.5005 1.00008 13.5005C1.13286 13.5005 1.2602 13.4478 1.35408 13.3539L7.35408 7.35392C7.40065 7.30747 7.43759 7.2523 7.4628 7.19155C7.488 7.13081 7.50098 7.06568 7.50098 6.99992C7.50098 6.93415 7.488 6.86903 7.4628 6.80828C7.43759 6.74754 7.40065 6.69236 7.35408 6.64592L1.35408 0.645917C1.30764 0.599354 1.25246 0.562411 1.19172 0.537205C1.13097 0.511998 1.06585 0.499023 1.00008 0.499023C0.934316 0.499023 0.869195 0.511998 0.80845 0.537205C0.747705 0.562411 0.692529 0.599354 0.646083 0.645917Z" fill="url(#paint0_linear_1357_2015)"/>
<defs>
<linearGradient id="paint0_linear_1357_2015" x1="4.00008" y1="0.499023" x2="4.00008" y2="13.5005" gradientUnits="userSpaceOnUse">
<stop stop-color="#5A8FFF"/>
<stop offset="1" stop-color="#003094"/>
</linearGradient>
</defs>
</svg>
