<svg width="6" height="10" viewBox="0 0 6 10" fill="none" xmlns="http://www.w3.org/2000/svg">
<path fill-rule="evenodd" clip-rule="evenodd" d="M3.00009 9.375C2.91721 9.375 2.83773 9.34208 2.77912 9.28347C2.72052 9.22487 2.68759 9.14538 2.68759 9.0625L2.68759 1.69187L0.721344 3.65875C0.662665 3.71743 0.583079 3.75039 0.500094 3.75039C0.41711 3.75039 0.337523 3.71743 0.278844 3.65875C0.220165 3.60007 0.1872 3.52048 0.1872 3.4375C0.1872 3.35451 0.220165 3.27493 0.278844 3.21625L2.77884 0.716249C2.80787 0.687148 2.84236 0.664058 2.88032 0.648305C2.91829 0.632551 2.95899 0.624441 3.00009 0.624441C3.0412 0.624441 3.0819 0.632551 3.11987 0.648305C3.15783 0.664058 3.19232 0.687148 3.22134 0.716249L5.72134 3.21625C5.78002 3.27493 5.81299 3.35452 5.81299 3.4375C5.81299 3.52048 5.78002 3.60007 5.72134 3.65875C5.66266 3.71743 5.58308 3.75039 5.50009 3.75039C5.41711 3.75039 5.33752 3.71743 5.27884 3.65875L3.31259 1.69187L3.31259 9.0625C3.31259 9.14538 3.27967 9.22487 3.22106 9.28347C3.16246 9.34208 3.08297 9.375 3.00009 9.375Z" fill="url(#paint0_linear_1357_2262)"/>
<defs>
<linearGradient id="paint0_linear_1357_2262" x1="3.00009" y1="9.375" x2="3.00009" y2="0.624441" gradientUnits="userSpaceOnUse">
<stop stop-color="#5A8FFF"/>
<stop offset="1" stop-color="#003094"/>
</linearGradient>
</defs>
</svg>
