<svg width="13" height="14" viewBox="0 0 13 14" fill="none" xmlns="http://www.w3.org/2000/svg">
<path d="M11.4379 0.667969V5.99997H10.3899V1.68397H10.3389L9.12793 2.54297V1.57397L10.3899 0.667969H11.4359H11.4379Z" fill="url(#paint0_linear_1518_853)"/>
<path fill-rule="evenodd" clip-rule="evenodd" d="M10.3603 13.0975C9.22326 13.0975 8.65226 12.4405 8.59826 11.8195H9.60226C9.66026 12.0425 9.94526 12.2695 10.3753 12.2695C11.1993 12.2695 11.5393 11.4405 11.5083 10.4135H11.4493C11.3013 10.8035 10.8793 11.1555 10.1883 11.1555C9.27826 11.1555 8.46826 10.5425 8.46826 9.3975C8.46826 8.2495 9.31626 7.5625 10.4413 7.5625C11.5313 7.5625 12.5043 8.1985 12.5043 10.2495C12.5043 12.1165 11.7813 13.0975 10.3593 13.0975H10.3603ZM10.4223 10.3625C10.9263 10.3625 11.3553 10.0265 11.3553 9.3905C11.3553 8.7575 10.9573 8.3825 10.4153 8.3825C9.89526 8.3825 9.48826 8.7575 9.48826 9.3825C9.48826 10.0225 9.90626 10.3625 10.4223 10.3625Z" fill="url(#paint1_linear_1518_853)"/>
<path d="M3.50014 1.5C3.50014 1.36739 3.44746 1.24021 3.3537 1.14645C3.25993 1.05268 3.13275 1 3.00014 1C2.86754 1 2.74036 1.05268 2.64659 1.14645C2.55282 1.24021 2.50014 1.36739 2.50014 1.5V11.293L1.35414 10.146C1.30766 10.0995 1.25247 10.0626 1.19173 10.0375C1.13099 10.0123 1.06589 9.99937 1.00014 9.99937C0.934399 9.99937 0.869299 10.0123 0.80856 10.0375C0.74782 10.0626 0.692631 10.0995 0.646143 10.146C0.599655 10.1925 0.562779 10.2477 0.53762 10.3084C0.512461 10.3692 0.499512 10.4343 0.499512 10.5C0.499512 10.5657 0.512461 10.6308 0.53762 10.6916C0.562779 10.7523 0.599655 10.8075 0.646143 10.854L2.64614 12.853L2.65314 12.86C2.74702 12.9515 2.87327 13.0023 3.00438 13.0011C3.13549 13 3.26085 12.9471 3.35314 12.854L5.35314 10.854C5.44703 10.7602 5.49983 10.633 5.49992 10.5004C5.50001 10.3677 5.4474 10.2404 5.35364 10.1465C5.25989 10.0526 5.13268 9.99981 5 9.99972C4.86732 9.99963 4.74003 10.0522 4.64614 10.146L3.50014 11.293V1.5Z" fill="url(#paint2_linear_1518_853)"/>
<defs>
<linearGradient id="paint0_linear_1518_853" x1="10.2829" y1="0.667969" x2="10.2829" y2="5.99997" gradientUnits="userSpaceOnUse">
<stop stop-color="#5A8FFF"/>
<stop offset="1" stop-color="#003094"/>
</linearGradient>
<linearGradient id="paint1_linear_1518_853" x1="10.4863" y1="7.5625" x2="10.4863" y2="13.0975" gradientUnits="userSpaceOnUse">
<stop stop-color="#5A8FFF"/>
<stop offset="1" stop-color="#003094"/>
</linearGradient>
<linearGradient id="paint2_linear_1518_853" x1="2.99972" y1="1" x2="2.99972" y2="13.0012" gradientUnits="userSpaceOnUse">
<stop stop-color="#5A8FFF"/>
<stop offset="1" stop-color="#003094"/>
</linearGradient>
</defs>
</svg>
