<svg width="10" height="10" viewBox="0 0 10 10" fill="none" xmlns="http://www.w3.org/2000/svg">
    <path d="M4.99986 0C5.16562 0 5.32459 0.065848 5.4418 0.183058C5.55901 0.300269 5.62486 0.45924 5.62486 0.625V3.9175L8.47611 2.27125C8.54722 2.22956 8.62587 2.20235 8.70753 2.19119C8.7892 2.18002 8.87226 2.18512 8.95195 2.20619C9.03164 2.22726 9.10637 2.26388 9.17185 2.31395C9.23732 2.36401 9.29225 2.42654 9.33346 2.49792C9.37468 2.5693 9.40136 2.64813 9.41199 2.72987C9.42261 2.81161 9.41696 2.89464 9.39537 2.97418C9.37377 3.05373 9.33665 3.12822 9.28615 3.19336C9.23565 3.2585 9.17276 3.31301 9.10111 3.35375L6.24986 5L9.10111 6.64625C9.17276 6.68699 9.23565 6.7415 9.28615 6.80664C9.33665 6.87178 9.37377 6.94627 9.39537 7.02582C9.41696 7.10536 9.42261 7.18839 9.41199 7.27013C9.40136 7.35187 9.37468 7.4307 9.33346 7.50208C9.29225 7.57346 9.23732 7.63599 9.17185 7.68605C9.10637 7.73612 9.03164 7.77274 8.95195 7.79381C8.87226 7.81488 8.7892 7.81998 8.70753 7.80881C8.62587 7.79765 8.54722 7.77044 8.47611 7.72875L5.62486 6.0825V9.375C5.62486 9.54076 5.55901 9.69973 5.4418 9.81694C5.32459 9.93415 5.16562 10 4.99986 10C4.8341 10 4.67513 9.93415 4.55792 9.81694C4.44071 9.69973 4.37486 9.54076 4.37486 9.375V6.0825L1.52361 7.72875C1.4525 7.77044 1.37385 7.79765 1.29219 7.80881C1.21052 7.81998 1.12746 7.81488 1.04777 7.79381C0.968081 7.77274 0.893349 7.73612 0.827873 7.68605C0.762397 7.63599 0.707471 7.57346 0.666258 7.50208C0.625044 7.4307 0.598357 7.35187 0.587733 7.27013C0.577109 7.18839 0.582758 7.10536 0.604354 7.02582C0.62595 6.94627 0.663067 6.87178 0.713568 6.80664C0.764069 6.7415 0.826956 6.68699 0.89861 6.64625L3.74986 5L0.89861 3.35375C0.756231 3.27028 0.652646 3.13388 0.610461 2.97432C0.568276 2.81476 0.590915 2.645 0.673438 2.50207C0.755961 2.35914 0.891668 2.25465 1.05094 2.21141C1.21022 2.16816 1.38014 2.18968 1.52361 2.27125L4.37486 3.9175V0.625C4.37486 0.45924 4.44071 0.300269 4.55792 0.183058C4.67513 0.065848 4.8341 0 4.99986 0V0Z" fill="#E70000"/>
</svg>
