<svg width="15" height="15" viewBox="0 0 15 15" fill="none" xmlns="http://www.w3.org/2000/svg">
<g clip-path="url(#clip0_1476_79)">
<path d="M7.2675 0.0617238C7.33831 0.0212752 7.41845 0 7.5 0C7.58155 0 7.66169 0.0212752 7.7325 0.0617238L11.2481 2.07079C11.3199 2.11177 11.3795 2.17098 11.421 2.24244C11.4625 2.31389 11.4843 2.39504 11.4844 2.47766V6.22297L14.7638 8.09797C14.8352 8.1388 14.8947 8.19772 14.9362 8.26881C14.9776 8.33991 14.9996 8.42067 15 8.50297V12.5211C15 12.6037 14.9781 12.6849 14.9366 12.7563C14.8951 12.8278 14.8355 12.887 14.7638 12.928L11.2481 14.937C11.1773 14.9775 11.0972 14.9988 11.0156 14.9988C10.9341 14.9988 10.8539 14.9775 10.7831 14.937L7.5 13.062L4.21688 14.938C4.14606 14.9784 4.06592 14.9997 3.98438 14.9997C3.90283 14.9997 3.82269 14.9784 3.75187 14.938L0.23625 12.9289C0.164506 12.8879 0.104869 12.8287 0.0633802 12.7573C0.0218918 12.6858 2.66503e-05 12.6047 0 12.522L0 8.50391C2.66503e-05 8.42129 0.0218918 8.34014 0.0633802 8.26869C0.104869 8.19723 0.164506 8.13802 0.23625 8.09704L3.51562 6.22297V2.47766C3.51565 2.39504 3.53752 2.31389 3.57901 2.24244C3.62049 2.17098 3.68013 2.11177 3.75187 2.07079L7.2675 0.0617238ZM3.98438 7.03485L1.41375 8.50391L3.98438 9.97297L6.555 8.50391L3.98438 7.03485ZM7.03125 9.31204L4.45312 10.7848V13.723L7.03125 12.2502V9.31204ZM7.96875 12.2502L10.5469 13.723V10.7848L7.96875 9.31204V12.2502ZM8.445 8.50391L11.0156 9.97297L13.5862 8.50391L11.0156 7.03485L8.445 8.50391ZM10.5469 6.22297V3.28485L7.96875 4.7586V7.69672L10.5469 6.22297ZM7.03125 7.69672V4.7586L4.45312 3.28485V6.22297L7.03125 7.69672ZM4.92937 2.47766L7.5 3.94672L10.0706 2.47766L7.5 1.0086L4.92937 2.47766ZM14.0625 9.31204L11.4844 10.7848V13.723L14.0625 12.2502V9.31204ZM3.51562 13.723V10.7848L0.9375 9.31204V12.2502L3.51562 13.723Z" fill="url(#paint0_linear_1476_79)"/>
</g>
<defs>
<linearGradient id="paint0_linear_1476_79" x1="7.5" y1="0" x2="7.5" y2="14.9997" gradientUnits="userSpaceOnUse">
<stop stop-color="#5A8FFF"/>
<stop offset="1" stop-color="#003094"/>
</linearGradient>
<clipPath id="clip0_1476_79">
<rect width="15" height="15" fill="white"/>
</clipPath>
</defs>
</svg>
