<svg width="10" height="10" viewBox="0 0 10 10" fill="none" xmlns="http://www.w3.org/2000/svg">
<g clip-path="url(#clip0_1478_2658)">
<rect width="10" height="10" rx="3" fill="url(#paint0_linear_1478_2658)"/>
<path d="M8.65866 2.27882C8.68776 2.30785 8.71085 2.34233 8.7266 2.3803C8.74236 2.41827 8.75046 2.45897 8.75046 2.50007C8.75046 2.54117 8.74236 2.58188 8.7266 2.61984C8.71085 2.65781 8.68776 2.69229 8.65866 2.72132L4.28366 7.09632C4.25463 7.12542 4.22014 7.14851 4.18218 7.16427C4.14421 7.18002 4.10351 7.18813 4.06241 7.18813C4.0213 7.18813 3.9806 7.18002 3.94264 7.16427C3.90467 7.14851 3.87018 7.12542 3.84116 7.09632L1.65366 4.90882C1.59498 4.85014 1.56201 4.77056 1.56201 4.68757C1.56201 4.60459 1.59498 4.525 1.65366 4.46632C1.71234 4.40764 1.79192 4.37468 1.87491 4.37468C1.95789 4.37468 2.03748 4.40764 2.09616 4.46632L4.06241 6.4332L8.21616 2.27882C8.24518 2.24972 8.27967 2.22663 8.31764 2.21088C8.3556 2.19512 8.3963 2.18701 8.43741 2.18701C8.47851 2.18701 8.51921 2.19512 8.55718 2.21088C8.59514 2.22663 8.62963 2.24972 8.65866 2.27882V2.27882Z" fill="white"/>
</g>
<defs>
<linearGradient id="paint0_linear_1478_2658" x1="5" y1="0" x2="5" y2="10" gradientUnits="userSpaceOnUse">
<stop stop-color="#5A8FFF"/>
<stop offset="1" stop-color="#003094"/>
</linearGradient>
<clipPath id="clip0_1478_2658">
<rect width="10" height="10" fill="white"/>
</clipPath>
</defs>
</svg>
