<svg width="30" height="30" viewBox="0 0 30 30" fill="none" xmlns="http://www.w3.org/2000/svg">
<path d="M1.01241 7.21735L0.937414 5.3251C0.937414 4.17141 1.3325 3.06497 2.03576 2.24918C2.73903 1.4334 3.69285 0.975098 4.68741 0.975098H11.5724C12.5669 0.975344 13.5206 1.43381 14.2237 2.24965L15.7762 4.05055C16.4793 4.86639 17.4329 5.32485 18.4274 5.3251H25.8937C26.4148 5.32504 26.9302 5.45096 27.407 5.69483C27.8838 5.9387 28.3115 6.29517 28.663 6.7415C29.0144 7.18783 29.2818 7.71423 29.448 8.28711C29.6143 8.85999 29.6758 9.46678 29.6287 10.0688L28.4343 25.2938C28.3496 26.3746 27.9197 27.3796 27.229 28.1116C26.5383 28.8436 25.6367 29.2497 24.7012 29.2501H5.29866C4.36311 29.2497 3.46148 28.8436 2.77078 28.1116C2.08009 27.3796 1.65021 26.3746 1.56554 25.2938L0.371164 10.0688C0.291263 9.06127 0.518153 8.05314 1.01241 7.21952V7.21735ZM4.10616 7.5001C3.8457 7.50008 3.58809 7.56301 3.34975 7.68488C3.11142 7.80675 2.89759 7.98489 2.72189 8.20793C2.54619 8.43098 2.41248 8.69404 2.32928 8.98035C2.24608 9.26666 2.21522 9.56994 2.23866 9.87085L3.43304 25.0958C3.47514 25.6363 3.68985 26.1389 4.03502 26.5051C4.38019 26.8713 4.8309 27.0746 5.29866 27.0751H24.7012C25.1689 27.0746 25.6196 26.8713 25.9648 26.5051C26.31 26.1389 26.5247 25.6363 26.5668 25.0958L27.7612 9.87085C27.7846 9.56994 27.7537 9.26666 27.6705 8.98035C27.5873 8.69404 27.4536 8.43098 27.2779 8.20793C27.1022 7.98489 26.8884 7.80675 26.6501 7.68488C26.4117 7.56301 26.1541 7.50008 25.8937 7.5001H4.10616ZM12.8999 3.78737C12.7256 3.58513 12.5187 3.42475 12.2909 3.31539C12.0631 3.20604 11.8189 3.14987 11.5724 3.1501H4.68741C4.19624 3.14999 3.72465 3.37346 3.37403 3.77246C3.0234 4.17146 2.82175 4.71412 2.81241 5.28377L2.82366 5.5861C3.22491 5.41645 3.65616 5.3251 4.10616 5.3251H14.2237L12.898 3.78737H12.8999Z" fill="#F4F4F4"/>
</svg>
