<svg width="30" height="31" viewBox="0 0 30 31" fill="none" xmlns="http://www.w3.org/2000/svg">
<path d="M30 15.0015C30 18.9797 28.4196 22.795 25.6066 25.6081C22.7936 28.4211 18.9782 30.0015 15 30.0015C11.0218 30.0015 7.20644 28.4211 4.3934 25.6081C1.58035 22.795 0 18.9797 0 15.0015C0 11.0232 1.58035 7.20791 4.3934 4.39486C7.20644 1.58182 11.0218 0.00146484 15 0.00146484C18.9782 0.00146484 22.7936 1.58182 25.6066 4.39486C28.4196 7.20791 30 11.0232 30 15.0015ZM10.305 11.3133H11.8519C12.1106 11.3133 12.3169 11.1015 12.3506 10.8446C12.5194 9.61459 13.3631 8.71834 14.8669 8.71834C16.1531 8.71834 17.3306 9.36146 17.3306 10.9083C17.3306 12.099 16.6294 12.6465 15.5212 13.479C14.2594 14.3958 13.26 15.4665 13.3313 17.2046L13.3369 17.6115C13.3388 17.7345 13.3891 17.8518 13.4768 17.9381C13.5645 18.0244 13.6826 18.0727 13.8056 18.0727H15.3263C15.4506 18.0727 15.5698 18.0233 15.6577 17.9354C15.7456 17.8475 15.795 17.7283 15.795 17.604V17.4071C15.795 16.0608 16.3069 15.669 17.6887 14.6208C18.8306 13.7527 20.0213 12.789 20.0213 10.7658C20.0213 7.93271 17.6287 6.56396 15.0094 6.56396C12.6337 6.56396 10.0312 7.67021 9.85313 10.8502C9.85056 10.9108 9.8604 10.9712 9.88206 11.0278C9.90371 11.0844 9.93672 11.136 9.97904 11.1794C10.0214 11.2227 10.0721 11.257 10.1282 11.28C10.1842 11.3031 10.2444 11.3144 10.305 11.3133ZM14.6644 23.394C15.8081 23.394 16.5938 22.6552 16.5938 21.6558C16.5938 20.6208 15.8063 19.8933 14.6644 19.8933C13.5694 19.8933 12.7725 20.6208 12.7725 21.6558C12.7725 22.6552 13.5694 23.394 14.6663 23.394H14.6644Z" fill="url(#paint0_linear_1357_1998)"/>
<defs>
<linearGradient id="paint0_linear_1357_1998" x1="15" y1="0.00146484" x2="15" y2="30.0015" gradientUnits="userSpaceOnUse">
<stop stop-color="#5A8FFF"/>
<stop offset="1" stop-color="#003094"/>
</linearGradient>
</defs>
</svg>
