<svg width="30" height="24" viewBox="0 0 30 24" fill="none" xmlns="http://www.w3.org/2000/svg">
<path d="M0.09375 3.66709C0.282784 2.8388 0.747479 2.09924 1.41173 1.56954C2.07598 1.03985 2.90041 0.751408 3.75 0.751465H26.25C27.0996 0.751408 27.924 1.03985 28.5883 1.56954C29.2525 2.09924 29.7172 2.8388 29.9062 3.66709L15 12.7777L0.09375 3.66709ZM0 5.80834V19.1283L10.8806 12.4571L0 5.80834ZM12.6769 13.5577L0.358125 21.1083C0.662487 21.7501 1.14286 22.2923 1.74334 22.6717C2.34382 23.0511 3.0397 23.2521 3.75 23.2515H26.25C26.9602 23.2516 27.6558 23.0501 28.2559 22.6704C28.8561 22.2907 29.336 21.7483 29.64 21.1065L17.3212 13.5558L15 14.9752L12.6769 13.5558V13.5577ZM19.1194 12.459L30 19.1283V5.80834L19.1194 12.4571V12.459Z" fill="url(#paint0_linear_1357_2000)"/>
<defs>
<linearGradient id="paint0_linear_1357_2000" x1="15" y1="0.751465" x2="15" y2="23.2515" gradientUnits="userSpaceOnUse">
<stop stop-color="#5A8FFF"/>
<stop offset="1" stop-color="#003094"/>
</linearGradient>
</defs>
</svg>
