<svg width="31" height="30" viewBox="0 0 31 30" fill="none" xmlns="http://www.w3.org/2000/svg">
<path d="M15.8125 30C16.9491 30 18.0392 29.6049 18.843 28.9017C19.6467 28.1985 20.0982 27.2447 20.0982 26.2502H11.5268C11.5268 27.2447 11.9783 28.1985 12.782 28.9017C13.5858 29.6049 14.6759 30 15.8125 30ZM17.9446 2.06215C17.9746 1.80146 17.9417 1.53817 17.8481 1.28927C17.7546 1.04037 17.6025 0.811389 17.4016 0.617091C17.2007 0.422792 16.9555 0.267491 16.6818 0.161203C16.4081 0.0549148 16.112 0 15.8125 0C15.513 0 15.2169 0.0549148 14.9432 0.161203C14.6695 0.267491 14.4243 0.422792 14.2234 0.617091C14.0225 0.811389 13.8704 1.04037 13.7769 1.28927C13.6833 1.53817 13.6504 1.80146 13.6804 2.06215C11.2583 2.49319 9.08097 3.64337 7.517 5.31791C5.95302 6.99246 5.09853 9.08847 5.09821 11.251C5.09821 13.3097 4.02679 22.5004 0.8125 24.3753H30.8125C27.5982 22.5004 26.5268 13.3097 26.5268 11.251C26.5268 6.71377 22.8411 2.92648 17.9446 2.06215Z" fill="url(#paint0_linear_1357_2002)"/>
<defs>
<linearGradient id="paint0_linear_1357_2002" x1="15.8125" y1="0" x2="15.8125" y2="30" gradientUnits="userSpaceOnUse">
<stop stop-color="#5A8FFF"/>
<stop offset="1" stop-color="#003094"/>
</linearGradient>
</defs>
</svg>
