<svg width="15" height="15" viewBox="0 0 15 15" fill="none" xmlns="http://www.w3.org/2000/svg">
<path d="M12.6019 2.39813C12.6563 2.45254 12.6995 2.51714 12.7289 2.58824C12.7584 2.65934 12.7735 2.73554 12.7735 2.8125C12.7735 2.88946 12.7584 2.96566 12.7289 3.03676C12.6995 3.10786 12.6563 3.17246 12.6019 3.22687L3.22687 12.6019C3.17246 12.6563 3.10786 12.6995 3.03676 12.7289C2.96566 12.7584 2.88946 12.7735 2.8125 12.7735C2.73554 12.7735 2.65934 12.7584 2.58824 12.7289C2.51714 12.6995 2.45254 12.6563 2.39813 12.6019C2.34371 12.5475 2.30054 12.4829 2.27109 12.4118C2.24164 12.3407 2.22649 12.2645 2.22649 12.1875C2.22649 12.1105 2.24164 12.0343 2.27109 11.9632C2.30054 11.8921 2.34371 11.8275 2.39813 11.7731L11.7731 2.39813C11.8275 2.3437 11.8921 2.30053 11.9632 2.27107C12.0343 2.24161 12.1105 2.22645 12.1875 2.22645C12.2645 2.22645 12.3407 2.24161 12.4118 2.27107C12.4829 2.30053 12.5475 2.3437 12.6019 2.39813ZM4.21875 5.625C3.84579 5.625 3.4881 5.47684 3.22438 5.21312C2.96066 4.9494 2.8125 4.59171 2.8125 4.21875C2.8125 3.84579 2.96066 3.4881 3.22438 3.22438C3.4881 2.96066 3.84579 2.8125 4.21875 2.8125C4.59171 2.8125 4.9494 2.96066 5.21312 3.22438C5.47684 3.4881 5.625 3.84579 5.625 4.21875C5.625 4.59171 5.47684 4.9494 5.21312 5.21312C4.9494 5.47684 4.59171 5.625 4.21875 5.625ZM4.21875 6.5625C4.84035 6.5625 5.43649 6.31557 5.87603 5.87603C6.31557 5.43649 6.5625 4.84035 6.5625 4.21875C6.5625 3.59715 6.31557 3.00101 5.87603 2.56147C5.43649 2.12193 4.84035 1.875 4.21875 1.875C3.59715 1.875 3.00101 2.12193 2.56147 2.56147C2.12193 3.00101 1.875 3.59715 1.875 4.21875C1.875 4.84035 2.12193 5.43649 2.56147 5.87603C3.00101 6.31557 3.59715 6.5625 4.21875 6.5625ZM10.7812 12.1875C10.4083 12.1875 10.0506 12.0393 9.78688 11.7756C9.52316 11.5119 9.375 11.1542 9.375 10.7812C9.375 10.4083 9.52316 10.0506 9.78688 9.78688C10.0506 9.52316 10.4083 9.375 10.7812 9.375C11.1542 9.375 11.5119 9.52316 11.7756 9.78688C12.0393 10.0506 12.1875 10.4083 12.1875 10.7812C12.1875 11.1542 12.0393 11.5119 11.7756 11.7756C11.5119 12.0393 11.1542 12.1875 10.7812 12.1875ZM10.7812 13.125C11.4029 13.125 11.999 12.8781 12.4385 12.4385C12.8781 11.999 13.125 11.4029 13.125 10.7812C13.125 10.1596 12.8781 9.56351 12.4385 9.12397C11.999 8.68443 11.4029 8.4375 10.7812 8.4375C10.1596 8.4375 9.56351 8.68443 9.12397 9.12397C8.68443 9.56351 8.4375 10.1596 8.4375 10.7812C8.4375 11.4029 8.68443 11.999 9.12397 12.4385C9.56351 12.8781 10.1596 13.125 10.7812 13.125Z" fill="url(#paint0_linear_1476_103)"/>
<defs>
<linearGradient id="paint0_linear_1476_103" x1="7.5" y1="1.875" x2="7.5" y2="13.125" gradientUnits="userSpaceOnUse">
<stop stop-color="#5A8FFF"/>
<stop offset="1" stop-color="#003094"/>
</linearGradient>
</defs>
</svg>
