<svg width="30" height="30" viewBox="0 0 30 30" fill="none" xmlns="http://www.w3.org/2000/svg">
<path d="M22.755 0.632967C23.1695 0.525584 23.6021 0.517417 24.0201 0.609088C24.4381 0.700759 24.8305 0.889857 25.1673 1.16203C25.5042 1.4342 25.7768 1.78229 25.9644 2.17987C26.152 2.57745 26.2497 3.01407 26.25 3.45658V5.82578H27.1875C27.9334 5.82578 28.6488 6.13268 29.1762 6.67896C29.7037 7.22525 30 7.96616 30 8.73873V26.2164C30 26.989 29.7037 27.7299 29.1762 28.2762C28.6488 28.8225 27.9334 29.1294 27.1875 29.1294H2.8125C2.06658 29.1294 1.35121 28.8225 0.823762 28.2762C0.296316 27.7299 1.83922e-07 26.989 1.83922e-07 26.2164V8.73873C-0.000261489 7.98884 0.278704 7.26774 0.778833 6.72552C1.27896 6.18329 1.96172 5.86172 2.685 5.82772L22.755 0.632967ZM10.4288 5.82578H24.375V3.45658C24.3747 3.30926 24.342 3.16394 24.2794 3.03164C24.2168 2.89933 24.126 2.78351 24.0138 2.69294C23.9016 2.60238 23.771 2.53944 23.6318 2.5089C23.4927 2.47836 23.3486 2.48102 23.2106 2.51667L10.4288 5.82578ZM2.8125 7.76774C2.56386 7.76774 2.3254 7.87004 2.14959 8.05214C1.97377 8.23423 1.875 8.4812 1.875 8.73873V26.2164C1.875 26.4739 1.97377 26.7209 2.14959 26.903C2.3254 27.0851 2.56386 27.1874 2.8125 27.1874H27.1875C27.4361 27.1874 27.6746 27.0851 27.8504 26.903C28.0262 26.7209 28.125 26.4739 28.125 26.2164V8.73873C28.125 8.4812 28.0262 8.23423 27.8504 8.05214C27.6746 7.87004 27.4361 7.76774 27.1875 7.76774H2.8125Z" fill="#F4F4F4"/>
</svg>
