<svg width="16" height="12" viewBox="0 0 16 12" fill="none" xmlns="http://www.w3.org/2000/svg">
<path d="M0 2.5C0 1.83696 0.263392 1.20107 0.732233 0.732233C1.20107 0.263392 1.83696 0 2.5 0H13.5C14.163 0 14.7989 0.263392 15.2678 0.732233C15.7366 1.20107 16 1.83696 16 2.5V9.5C16 10.163 15.7366 10.7989 15.2678 11.2678C14.7989 11.7366 14.163 12 13.5 12H2.5C1.83696 12 1.20107 11.7366 0.732233 11.2678C0.263392 10.7989 0 10.163 0 9.5L0 2.5ZM2.5 1C2.10218 1 1.72064 1.15804 1.43934 1.43934C1.15804 1.72064 1 2.10218 1 2.5V9.5C1 9.89782 1.15804 10.2794 1.43934 10.5607C1.72064 10.842 2.10218 11 2.5 11H13.5C13.8978 11 14.2794 10.842 14.5607 10.5607C14.842 10.2794 15 9.89782 15 9.5V2.5C15 2.10218 14.842 1.72064 14.5607 1.43934C14.2794 1.15804 13.8978 1 13.5 1H2.5ZM13.354 5.646C13.4006 5.69245 13.4375 5.74762 13.4627 5.80837C13.4879 5.86911 13.5009 5.93423 13.5009 6C13.5009 6.06577 13.4879 6.13089 13.4627 6.19163C13.4375 6.25238 13.4006 6.30755 13.354 6.354L10.354 9.354C10.2601 9.44789 10.1328 9.50063 10 9.50063C9.86722 9.50063 9.73989 9.44789 9.646 9.354C9.55211 9.26011 9.49937 9.13278 9.49937 9C9.49937 8.86722 9.55211 8.73989 9.646 8.646L12.646 5.646C12.6924 5.59944 12.7476 5.56249 12.8084 5.53729C12.8691 5.51208 12.9342 5.49911 13 5.49911C13.0658 5.49911 13.1309 5.51208 13.1916 5.53729C13.2524 5.56249 13.3076 5.59944 13.354 5.646ZM13.354 8.146C13.4006 8.19245 13.4375 8.24762 13.4627 8.30837C13.4879 8.36911 13.5009 8.43423 13.5009 8.5C13.5009 8.56577 13.4879 8.63089 13.4627 8.69163C13.4375 8.75238 13.4006 8.80755 13.354 8.854L12.854 9.354C12.7601 9.44789 12.6328 9.50063 12.5 9.50063C12.3672 9.50063 12.2399 9.44789 12.146 9.354C12.0521 9.26011 11.9994 9.13278 11.9994 9C11.9994 8.86722 12.0521 8.73989 12.146 8.646L12.646 8.146C12.6924 8.09944 12.7476 8.06249 12.8084 8.03729C12.8691 8.01208 12.9342 7.99911 13 7.99911C13.0658 7.99911 13.1309 8.01208 13.1916 8.03729C13.2524 8.06249 13.3076 8.09944 13.354 8.146Z" fill="url(#paint0_linear_1518_795)"/>
<defs>
<linearGradient id="paint0_linear_1518_795" x1="8" y1="0" x2="8" y2="12" gradientUnits="userSpaceOnUse">
<stop stop-color="#5A8FFF"/>
<stop offset="1" stop-color="#003094"/>
</linearGradient>
</defs>
</svg>
