<svg width="15" height="15" viewBox="0 0 15 15" fill="none" xmlns="http://www.w3.org/2000/svg">
<g clip-path="url(#clip0_1476_178)">
<path d="M2.76562 0.375C2.85295 0.258566 2.96619 0.164063 3.09636 0.0989745C3.22654 0.033886 3.37008 0 3.51562 0L11.4844 0C11.6299 0 11.7735 0.033886 11.9036 0.0989745C12.0338 0.164063 12.147 0.258566 12.2344 0.375L14.9062 3.9375C14.9671 4.01864 15 4.11733 15 4.21875V14.0625C15 14.3111 14.9012 14.5496 14.7254 14.7254C14.5496 14.9012 14.3111 15 14.0625 15H0.9375C0.68886 15 0.450403 14.9012 0.274587 14.7254C0.0987721 14.5496 0 14.3111 0 14.0625V4.21875C0 4.11733 0.0328959 4.01864 0.09375 3.9375L2.76562 0.375ZM7.03125 0.9375H3.51562L1.40625 3.75H7.03125V0.9375ZM7.96875 0.9375V3.75H13.5938L11.4844 0.9375H7.96875ZM14.0625 4.6875H0.9375V14.0625H14.0625V4.6875Z" fill="url(#paint0_linear_1476_178)"/>
</g>
<defs>
<linearGradient id="paint0_linear_1476_178" x1="7.5" y1="0" x2="7.5" y2="15" gradientUnits="userSpaceOnUse">
<stop stop-color="#5A8FFF"/>
<stop offset="1" stop-color="#003094"/>
</linearGradient>
<clipPath id="clip0_1476_178">
<rect width="15" height="15" fill="white"/>
</clipPath>
</defs>
</svg>
