<svg width="22" height="20" viewBox="0 0 22 20" fill="none" xmlns="http://www.w3.org/2000/svg">
<path d="M1.75001 9.9998C1.74979 8.55151 2.13082 7.12869 2.85482 5.87435C3.57882 4.62001 4.62026 3.57837 5.87446 2.85412C7.12865 2.12988 8.5514 1.74857 9.99969 1.74851C11.448 1.74845 12.8708 2.12966 14.125 2.8538C14.2972 2.95169 14.5011 2.9775 14.6922 2.92561C14.8833 2.87372 15.0462 2.74834 15.1452 2.57682C15.2442 2.40531 15.2714 2.20158 15.2208 2.01011C15.1702 1.81864 15.0459 1.65496 14.875 1.5548C13.0163 0.481673 10.8554 0.0518328 8.72754 0.331941C6.59964 0.61205 4.62362 1.58645 3.10594 3.10404C1.58826 4.62162 0.613733 6.59757 0.333488 8.72545C0.0532427 10.8533 0.482945 13.0142 1.55595 14.873C2.62896 16.7318 4.28531 18.1846 6.26813 19.0061C8.25094 19.8276 10.4494 19.9719 12.5226 19.4166C14.5958 18.8613 16.4278 17.6374 17.7345 15.9348C19.0413 14.2323 19.7497 12.1461 19.75 9.9998C19.75 9.80089 19.671 9.61012 19.5303 9.46947C19.3897 9.32882 19.1989 9.2498 19 9.2498C18.8011 9.2498 18.6103 9.32882 18.4697 9.46947C18.329 9.61012 18.25 9.80089 18.25 9.9998C18.25 12.1878 17.3808 14.2863 15.8336 15.8334C14.2865 17.3806 12.1881 18.2498 10 18.2498C7.81198 18.2498 5.71356 17.3806 4.16638 15.8334C2.61921 14.2863 1.75001 12.1878 1.75001 9.9998Z" fill="url(#paint0_linear_1357_3620)"/>
<path d="M21.031 3.03097C21.1007 2.96124 21.156 2.87846 21.1938 2.78735C21.2315 2.69624 21.2509 2.59859 21.2509 2.49997C21.2509 2.40135 21.2315 2.3037 21.1938 2.2126C21.156 2.12149 21.1007 2.0387 21.031 1.96897C20.9612 1.89924 20.8785 1.84392 20.7873 1.80619C20.6962 1.76845 20.5986 1.74902 20.5 1.74902C20.4014 1.74902 20.3037 1.76845 20.2126 1.80619C20.1215 1.84392 20.0387 1.89924 19.969 1.96897L9.99997 11.9395L6.03097 7.96897C5.96124 7.89924 5.87846 7.84392 5.78735 7.80619C5.69624 7.76845 5.59859 7.74902 5.49997 7.74902C5.40136 7.74902 5.3037 7.76845 5.2126 7.80619C5.12149 7.84392 5.0387 7.89924 4.96897 7.96897C4.89924 8.0387 4.84392 8.12149 4.80619 8.21259C4.76845 8.3037 4.74902 8.40135 4.74902 8.49997C4.74902 8.59859 4.76845 8.69624 4.80619 8.78735C4.84392 8.87846 4.89924 8.96124 4.96897 9.03097L9.46897 13.531C9.53864 13.6008 9.6214 13.6562 9.71252 13.694C9.80364 13.7318 9.90132 13.7513 9.99997 13.7513C10.0986 13.7513 10.1963 13.7318 10.2874 13.694C10.3785 13.6562 10.4613 13.6008 10.531 13.531L21.031 3.03097Z" fill="url(#paint1_linear_1357_3620)"/>
<defs>
<linearGradient id="paint0_linear_1357_3620" x1="10" y1="0.248535" x2="10" y2="19.7486" gradientUnits="userSpaceOnUse">
<stop stop-color="#00DC4B"/>
<stop offset="1" stop-color="#009231"/>
</linearGradient>
<linearGradient id="paint1_linear_1357_3620" x1="13" y1="1.74902" x2="13" y2="13.7513" gradientUnits="userSpaceOnUse">
<stop stop-color="#00DC4B"/>
<stop offset="1" stop-color="#009231"/>
</linearGradient>
</defs>
</svg>
