<svg width="15" height="15" viewBox="0 0 15 15" fill="none" xmlns="http://www.w3.org/2000/svg">
<g clip-path="url(#clip0_1476_158)">
<path d="M0 1.875C0 1.62636 0.0987721 1.3879 0.274587 1.21209C0.450403 1.03627 0.68886 0.9375 0.9375 0.9375H14.0625C14.3111 0.9375 14.5496 1.03627 14.7254 1.21209C14.9012 1.3879 15 1.62636 15 1.875V3.75C15 3.99864 14.9012 4.2371 14.7254 4.41291C14.5496 4.58873 14.3111 4.6875 14.0625 4.6875V11.7188C14.0625 12.3404 13.8156 12.9365 13.376 13.376C12.9365 13.8156 12.3404 14.0625 11.7188 14.0625H3.28125C2.65965 14.0625 2.06351 13.8156 1.62397 13.376C1.18443 12.9365 0.9375 12.3404 0.9375 11.7188V4.6875C0.68886 4.6875 0.450403 4.58873 0.274587 4.41291C0.0987721 4.2371 0 3.99864 0 3.75V1.875ZM1.875 4.6875V11.7188C1.875 12.0917 2.02316 12.4494 2.28688 12.7131C2.5506 12.9768 2.90829 13.125 3.28125 13.125H11.7188C12.0917 13.125 12.4494 12.9768 12.7131 12.7131C12.9768 12.4494 13.125 12.0917 13.125 11.7188V4.6875H1.875ZM14.0625 1.875H0.9375V3.75H14.0625V1.875ZM4.6875 7.03125C4.6875 6.90693 4.73689 6.7877 4.82479 6.69979C4.9127 6.61189 5.03193 6.5625 5.15625 6.5625H9.84375C9.96807 6.5625 10.0873 6.61189 10.1752 6.69979C10.2631 6.7877 10.3125 6.90693 10.3125 7.03125C10.3125 7.15557 10.2631 7.2748 10.1752 7.36271C10.0873 7.45061 9.96807 7.5 9.84375 7.5H5.15625C5.03193 7.5 4.9127 7.45061 4.82479 7.36271C4.73689 7.2748 4.6875 7.15557 4.6875 7.03125Z" fill="url(#paint0_linear_1476_158)"/>
</g>
<defs>
<linearGradient id="paint0_linear_1476_158" x1="7.5" y1="0.9375" x2="7.5" y2="14.0625" gradientUnits="userSpaceOnUse">
<stop stop-color="#5A8FFF"/>
<stop offset="1" stop-color="#003094"/>
</linearGradient>
<clipPath id="clip0_1476_158">
<rect width="15" height="15" fill="white"/>
</clipPath>
</defs>
</svg>
