<svg width="15" height="13" viewBox="0 0 15 13" fill="none" xmlns="http://www.w3.org/2000/svg">
<path d="M7.72018 0.461738C7.65236 0.425626 7.5767 0.406738 7.49986 0.406738C7.42303 0.406738 7.34737 0.425626 7.27955 0.461738L0.248301 4.21174C0.173421 4.25175 0.110812 4.31134 0.0671591 4.38416C0.0235064 4.45697 0.000449219 4.54028 0.000449219 4.62518C0.000449219 4.71007 0.0235064 4.79338 0.0671591 4.8662C0.110812 4.93901 0.173421 4.9986 0.248301 5.03861L2.98861 6.50018L0.247364 7.96174C0.172483 8.00175 0.109874 8.06134 0.0662216 8.13416C0.0225689 8.20697 -0.000488281 8.29028 -0.000488281 8.37518C-0.000488281 8.46007 0.0225689 8.54338 0.0662216 8.61619C0.109874 8.68901 0.172483 8.7486 0.247364 8.78861L7.27861 12.5386C7.34643 12.5747 7.42209 12.5936 7.49893 12.5936C7.57576 12.5936 7.65142 12.5747 7.71924 12.5386L14.7505 8.78861C14.8254 8.7486 14.888 8.68901 14.9316 8.61619C14.9753 8.54338 14.9983 8.46007 14.9983 8.37518C14.9983 8.29028 14.9753 8.20697 14.9316 8.13416C14.888 8.06134 14.8254 8.00175 14.7505 7.96174L12.0121 6.50018L14.7514 5.03861C14.8263 4.9986 14.8889 4.93901 14.9326 4.8662C14.9762 4.79338 14.9993 4.71007 14.9993 4.62518C14.9993 4.54028 14.9762 4.45697 14.9326 4.38416C14.8889 4.31134 14.8263 4.25175 14.7514 4.21174L7.72018 0.461738ZM11.0155 7.03174L13.5355 8.37518L7.49986 11.5936L1.46424 8.37518L3.98424 7.03174L7.27955 8.78861C7.34737 8.82473 7.42303 8.84361 7.49986 8.84361C7.5767 8.84361 7.65236 8.82473 7.72018 8.78861L11.0155 7.03174ZM7.49986 7.84361L1.46424 4.62518L7.49986 1.40674L13.5355 4.62518L7.49986 7.84361Z" fill="url(#paint0_linear_1476_212)"/>
<defs>
<linearGradient id="paint0_linear_1476_212" x1="7.49939" y1="0.406738" x2="7.49939" y2="12.5936" gradientUnits="userSpaceOnUse">
<stop stop-color="#5A8FFF"/>
<stop offset="1" stop-color="#003094"/>
</linearGradient>
</defs>
</svg>
