<svg width="15" height="15" viewBox="0 0 15 15" fill="none" xmlns="http://www.w3.org/2000/svg">
<g clip-path="url(#clip0_1476_222)">
<path d="M1.40625 0.9375C1.28193 0.9375 1.1627 0.986886 1.07479 1.07479C0.986886 1.1627 0.9375 1.28193 0.9375 1.40625V4.21875C0.9375 4.34307 0.888114 4.4623 0.800206 4.55021C0.712299 4.63811 0.59307 4.6875 0.46875 4.6875C0.34443 4.6875 0.225201 4.63811 0.137294 4.55021C0.049386 4.4623 0 4.34307 0 4.21875V1.40625C0 1.03329 0.148158 0.675604 0.411881 0.411881C0.675604 0.148158 1.03329 0 1.40625 0L4.21875 0C4.34307 0 4.4623 0.049386 4.55021 0.137294C4.63811 0.225201 4.6875 0.34443 4.6875 0.46875C4.6875 0.59307 4.63811 0.712299 4.55021 0.800206C4.4623 0.888114 4.34307 0.9375 4.21875 0.9375H1.40625ZM10.3125 0.46875C10.3125 0.34443 10.3619 0.225201 10.4498 0.137294C10.5377 0.049386 10.6569 0 10.7812 0L13.5938 0C13.9667 0 14.3244 0.148158 14.5881 0.411881C14.8518 0.675604 15 1.03329 15 1.40625V4.21875C15 4.34307 14.9506 4.4623 14.8627 4.55021C14.7748 4.63811 14.6556 4.6875 14.5312 4.6875C14.4069 4.6875 14.2877 4.63811 14.1998 4.55021C14.1119 4.4623 14.0625 4.34307 14.0625 4.21875V1.40625C14.0625 1.28193 14.0131 1.1627 13.9252 1.07479C13.8373 0.986886 13.7181 0.9375 13.5938 0.9375H10.7812C10.6569 0.9375 10.5377 0.888114 10.4498 0.800206C10.3619 0.712299 10.3125 0.59307 10.3125 0.46875ZM0.46875 10.3125C0.59307 10.3125 0.712299 10.3619 0.800206 10.4498C0.888114 10.5377 0.9375 10.6569 0.9375 10.7812V13.5938C0.9375 13.7181 0.986886 13.8373 1.07479 13.9252C1.1627 14.0131 1.28193 14.0625 1.40625 14.0625H4.21875C4.34307 14.0625 4.4623 14.1119 4.55021 14.1998C4.63811 14.2877 4.6875 14.4069 4.6875 14.5312C4.6875 14.6556 4.63811 14.7748 4.55021 14.8627C4.4623 14.9506 4.34307 15 4.21875 15H1.40625C1.03329 15 0.675604 14.8518 0.411881 14.5881C0.148158 14.3244 0 13.9667 0 13.5938L0 10.7812C0 10.6569 0.049386 10.5377 0.137294 10.4498C0.225201 10.3619 0.34443 10.3125 0.46875 10.3125ZM14.5312 10.3125C14.6556 10.3125 14.7748 10.3619 14.8627 10.4498C14.9506 10.5377 15 10.6569 15 10.7812V13.5938C15 13.9667 14.8518 14.3244 14.5881 14.5881C14.3244 14.8518 13.9667 15 13.5938 15H10.7812C10.6569 15 10.5377 14.9506 10.4498 14.8627C10.3619 14.7748 10.3125 14.6556 10.3125 14.5312C10.3125 14.4069 10.3619 14.2877 10.4498 14.1998C10.5377 14.1119 10.6569 14.0625 10.7812 14.0625H13.5938C13.7181 14.0625 13.8373 14.0131 13.9252 13.9252C14.0131 13.8373 14.0625 13.7181 14.0625 13.5938V10.7812C14.0625 10.6569 14.1119 10.5377 14.1998 10.4498C14.2877 10.3619 14.4069 10.3125 14.5312 10.3125ZM2.8125 4.21875C2.8125 4.09443 2.86189 3.9752 2.94979 3.88729C3.0377 3.79939 3.15693 3.75 3.28125 3.75C3.40557 3.75 3.5248 3.79939 3.61271 3.88729C3.70061 3.9752 3.75 4.09443 3.75 4.21875V10.7812C3.75 10.9056 3.70061 11.0248 3.61271 11.1127C3.5248 11.2006 3.40557 11.25 3.28125 11.25C3.15693 11.25 3.0377 11.2006 2.94979 11.1127C2.86189 11.0248 2.8125 10.9056 2.8125 10.7812V4.21875ZM4.6875 4.21875C4.6875 4.09443 4.73689 3.9752 4.82479 3.88729C4.9127 3.79939 5.03193 3.75 5.15625 3.75C5.28057 3.75 5.3998 3.79939 5.48771 3.88729C5.57561 3.9752 5.625 4.09443 5.625 4.21875V10.7812C5.625 10.9056 5.57561 11.0248 5.48771 11.1127C5.3998 11.2006 5.28057 11.25 5.15625 11.25C5.03193 11.25 4.9127 11.2006 4.82479 11.1127C4.73689 11.0248 4.6875 10.9056 4.6875 10.7812V4.21875ZM6.5625 4.21875C6.5625 4.09443 6.61189 3.9752 6.69979 3.88729C6.7877 3.79939 6.90693 3.75 7.03125 3.75C7.15557 3.75 7.2748 3.79939 7.36271 3.88729C7.45061 3.9752 7.5 4.09443 7.5 4.21875V10.7812C7.5 10.9056 7.45061 11.0248 7.36271 11.1127C7.2748 11.2006 7.15557 11.25 7.03125 11.25C6.90693 11.25 6.7877 11.2006 6.69979 11.1127C6.61189 11.0248 6.5625 10.9056 6.5625 10.7812V4.21875ZM8.4375 4.21875C8.4375 4.09443 8.48689 3.9752 8.57479 3.88729C8.6627 3.79939 8.78193 3.75 8.90625 3.75H9.84375C9.96807 3.75 10.0873 3.79939 10.1752 3.88729C10.2631 3.9752 10.3125 4.09443 10.3125 4.21875V10.7812C10.3125 10.9056 10.2631 11.0248 10.1752 11.1127C10.0873 11.2006 9.96807 11.25 9.84375 11.25H8.90625C8.78193 11.25 8.6627 11.2006 8.57479 11.1127C8.48689 11.0248 8.4375 10.9056 8.4375 10.7812V4.21875ZM11.25 4.21875C11.25 4.09443 11.2994 3.9752 11.3873 3.88729C11.4752 3.79939 11.5944 3.75 11.7188 3.75C11.8431 3.75 11.9623 3.79939 12.0502 3.88729C12.1381 3.9752 12.1875 4.09443 12.1875 4.21875V10.7812C12.1875 10.9056 12.1381 11.0248 12.0502 11.1127C11.9623 11.2006 11.8431 11.25 11.7188 11.25C11.5944 11.25 11.4752 11.2006 11.3873 11.1127C11.2994 11.0248 11.25 10.9056 11.25 10.7812V4.21875Z" fill="url(#paint0_linear_1476_222)"/>
</g>
<defs>
<linearGradient id="paint0_linear_1476_222" x1="7.5" y1="0" x2="7.5" y2="15" gradientUnits="userSpaceOnUse">
<stop stop-color="#5A8FFF"/>
<stop offset="1" stop-color="#003094"/>
</linearGradient>
<clipPath id="clip0_1476_222">
<rect width="15" height="15" fill="white"/>
</clipPath>
</defs>
</svg>
