<svg width="15" height="14" viewBox="0 0 15 14" fill="none" xmlns="http://www.w3.org/2000/svg">
<path d="M14.0819 0.182144C14.1534 0.253679 14.2015 0.345209 14.2199 0.444652C14.2383 0.544095 14.2261 0.646777 14.1849 0.739145L8.52793 13.4671C8.4884 13.5562 8.42374 13.6317 8.34188 13.6845C8.26002 13.7372 8.16453 13.765 8.06713 13.7642C7.96974 13.7635 7.87468 13.7343 7.79364 13.6803C7.71259 13.6263 7.64909 13.5498 7.61093 13.4601L5.56993 8.69415L0.802926 6.65214C0.713651 6.61375 0.637501 6.55016 0.58379 6.46917C0.530079 6.38818 0.501136 6.29329 0.500499 6.19611C0.499862 6.09892 0.527561 6.00366 0.580206 5.92198C0.632851 5.84029 0.708161 5.77571 0.796926 5.73614L13.5249 0.0791445C13.6172 0.0381924 13.7196 0.0261141 13.8189 0.044498C13.9181 0.0628819 14.0095 0.110867 14.0809 0.182144H14.0819ZM2.24993 6.18414L6.14693 7.85414C6.26477 7.90494 6.35858 7.9991 6.40893 8.11714L8.07893 12.0141L12.7429 1.52014L2.24993 6.18414Z" fill="url(#paint0_linear_1518_844)"/>
<defs>
<linearGradient id="paint0_linear_1518_844" x1="7.36437" y1="0.0361328" x2="7.36437" y2="13.7642" gradientUnits="userSpaceOnUse">
<stop stop-color="#5A8FFF"/>
<stop offset="1" stop-color="#003094"/>
</linearGradient>
</defs>
</svg>
