<svg width="9" height="10" viewBox="0 0 9 10" fill="none" xmlns="http://www.w3.org/2000/svg">
<path d="M4.41734 0C4.5831 0 4.74207 0.065848 4.85928 0.183058C4.97649 0.300269 5.04234 0.45924 5.04234 0.625V3.9175L7.89359 2.27125C7.9647 2.22956 8.04335 2.20235 8.12501 2.19119C8.20668 2.18002 8.28974 2.18512 8.36943 2.20619C8.44912 2.22726 8.52385 2.26388 8.58933 2.31395C8.6548 2.36401 8.70973 2.42654 8.75094 2.49792C8.79216 2.5693 8.81884 2.64813 8.82947 2.72987C8.84009 2.81161 8.83444 2.89464 8.81285 2.97418C8.79125 3.05373 8.75413 3.12822 8.70363 3.19336C8.65313 3.2585 8.59024 3.31301 8.51859 3.35375L5.66734 5L8.51859 6.64625C8.59024 6.68699 8.65313 6.7415 8.70363 6.80664C8.75413 6.87178 8.79125 6.94627 8.81285 7.02582C8.83444 7.10536 8.84009 7.18839 8.82947 7.27013C8.81884 7.35187 8.79216 7.4307 8.75094 7.50208C8.70973 7.57346 8.6548 7.63599 8.58933 7.68605C8.52385 7.73612 8.44912 7.77274 8.36943 7.79381C8.28974 7.81488 8.20668 7.81998 8.12501 7.80881C8.04335 7.79765 7.9647 7.77044 7.89359 7.72875L5.04234 6.0825V9.375C5.04234 9.54076 4.97649 9.69973 4.85928 9.81694C4.74207 9.93415 4.5831 10 4.41734 10C4.25158 10 4.09261 9.93415 3.9754 9.81694C3.85819 9.69973 3.79234 9.54076 3.79234 9.375V6.0825L0.94109 7.72875C0.869984 7.77044 0.791334 7.79765 0.709668 7.80881C0.628003 7.81998 0.544936 7.81488 0.465249 7.79381C0.385562 7.77274 0.310829 7.73612 0.245353 7.68605C0.179877 7.63599 0.124951 7.57346 0.0837381 7.50208C0.0425247 7.4307 0.0158377 7.35187 0.00521358 7.27013C-0.00541055 7.18839 0.00023802 7.10536 0.0218341 7.02582C0.0434302 6.94627 0.0805473 6.87178 0.131048 6.80664C0.181549 6.7415 0.244437 6.68699 0.31609 6.64625L3.16734 5L0.31609 3.35375C0.173711 3.27028 0.0701269 3.13388 0.0279418 2.97432C-0.0142432 2.81476 0.00839585 2.645 0.0909187 2.50207C0.173442 2.35914 0.309149 2.25465 0.468425 2.21141C0.627701 2.16816 0.797616 2.18968 0.94109 2.27125L3.79234 3.9175V0.625C3.79234 0.45924 3.85819 0.300269 3.9754 0.183058C4.09261 0.065848 4.25158 0 4.41734 0V0Z" fill="url(#paint0_linear_1551_11)"/>
<defs>
<linearGradient id="paint0_linear_1551_11" x1="4.41734" y1="0" x2="4.41734" y2="10" gradientUnits="userSpaceOnUse">
<stop stop-color="#E70000"/>
<stop offset="1" stop-color="#B70000"/>
</linearGradient>
</defs>
</svg>
