<svg width="148" height="112" viewBox="0 0 148 112" fill="none" xmlns="http://www.w3.org/2000/svg">
<path d="M48.1027 19.4874L48.1037 19.4865L55.7363 11.8723L48.1027 19.4874ZM48.1027 19.4874C43.1193 24.4724 36.3604 27.2748 29.3117 27.2786H18.5333C15.8288 27.2786 13.2352 28.353 11.3229 30.2653C9.41054 32.1776 8.33621 34.7713 8.33621 37.4757V92.658C8.33621 95.3624 9.41054 97.9561 11.3229 99.8684C13.2352 101.781 15.8288 102.855 18.5333 102.855H128.898C131.602 102.855 134.196 101.781 136.108 99.8684C138.021 97.9561 139.095 95.3624 139.095 92.658V37.4757C139.095 34.7713 138.021 32.1776 136.108 30.2653C134.196 28.353 131.602 27.2786 128.898 27.2786H118.119C114.626 27.2791 111.167 26.5912 107.939 25.2544C104.712 23.9175 101.78 21.9579 99.31 19.4874L99.3099 19.4873L91.6948 11.8723C91.6948 11.8722 91.6948 11.8722 91.6947 11.8722C89.7829 9.95979 87.1897 8.88513 84.4855 8.88455H84.4853L62.9274 8.88455L62.9252 8.88455M48.1027 19.4874L62.9252 8.88455M62.9252 8.88455C60.2285 8.89053 57.644 9.96446 55.7372 11.8713L62.9252 8.88455ZM118.119 20.0816H118.119C112.976 20.0805 108.043 18.0365 104.407 14.3992C104.407 14.3992 104.407 14.3992 104.407 14.3991L96.792 6.78408L96.7919 6.78397C93.5307 3.52177 89.1072 1.68854 84.4945 1.6875L118.119 20.0816ZM118.119 20.0816H128.898C133.511 20.0816 137.935 21.9142 141.197 25.1762C144.459 28.4382 146.292 32.8625 146.292 37.4757V92.658C146.292 97.2712 144.459 101.695 141.197 104.957C137.935 108.219 133.511 110.052 128.898 110.052H18.5333C13.9201 110.052 9.4958 108.219 6.23377 104.957C2.97175 101.695 1.13916 97.2712 1.13916 92.658V37.4757C1.13916 32.8625 2.97175 28.4382 6.23377 25.1762C9.4958 21.9142 13.9201 20.0816 18.5333 20.0816H29.3122H29.3124C34.4556 20.0805 39.3877 18.0365 43.0239 14.3992C43.024 14.3992 43.024 14.3992 43.024 14.3991L50.6391 6.78408L50.6392 6.78397M118.119 20.0816L50.6392 6.78397M50.6392 6.78397C53.9004 3.52177 58.3239 1.68854 62.9366 1.6875C62.9367 1.6875 62.9368 1.6875 62.9368 1.6875M50.6392 6.78397L62.9368 1.6875M62.9368 1.6875H84.4943H62.9368Z" fill="url(#paint0_linear_1476_287)" stroke="white" stroke-width="2"/>
<path d="M56.7502 77.4338C61.2496 81.9333 67.3523 84.4611 73.7155 84.4611C80.0787 84.4611 86.1814 81.9333 90.6808 77.4338C95.1803 72.9343 97.7081 66.8317 97.7081 60.4685C97.7081 54.1052 95.1803 48.0026 90.6808 43.5031C86.1814 39.0036 80.0787 36.4759 73.7155 36.4759C67.3523 36.4759 61.2496 39.0036 56.7502 43.5031C52.2507 48.0026 49.7229 54.1052 49.7229 60.4685C49.7229 66.8317 52.2507 72.9343 56.7502 77.4338ZM95.7699 82.5229C89.9207 88.3721 81.9875 91.6582 73.7155 91.6582C65.4435 91.6582 57.5103 88.3721 51.6611 82.5229C45.8119 76.6737 42.5258 68.7405 42.5258 60.4685C42.5258 52.1965 45.8119 44.2633 51.6611 38.4141C57.5103 32.5649 65.4435 29.2788 73.7155 29.2788C81.9875 29.2788 89.9207 32.5649 95.7699 38.4141C101.619 44.2633 104.905 52.1965 104.905 60.4685C104.905 68.7405 101.619 76.6737 95.7699 82.5229ZM26.7303 42.0744C26.7303 43.0288 26.3511 43.9441 25.6763 44.6189C25.0014 45.2938 24.0861 45.6729 23.1317 45.6729C22.1773 45.6729 21.262 45.2938 20.5872 44.6189C19.9123 43.9441 19.5332 43.0288 19.5332 42.0744C19.5332 41.12 19.9123 40.2047 20.5872 39.5298C21.262 38.855 22.1773 38.4759 23.1317 38.4759C24.0861 38.4759 25.0014 38.855 25.6763 39.5298C26.3511 40.2047 26.7303 41.12 26.7303 42.0744Z" fill="url(#paint1_linear_1476_287)" stroke="white" stroke-width="2"/>
<defs>
<linearGradient id="paint0_linear_1476_287" x1="73.7156" y1="0.6875" x2="73.7156" y2="111.052" gradientUnits="userSpaceOnUse">
<stop stop-color="#5A8FFF"/>
<stop offset="1" stop-color="#003094"/>
</linearGradient>
<linearGradient id="paint1_linear_1476_287" x1="62.2192" y1="28.2788" x2="62.2192" y2="92.6581" gradientUnits="userSpaceOnUse">
<stop stop-color="#5A8FFF"/>
<stop offset="1" stop-color="#003094"/>
</linearGradient>
</defs>
</svg>
