<svg width="15" height="13" viewBox="0 0 15 13" fill="none" xmlns="http://www.w3.org/2000/svg">
<path d="M0 2.75C0 2.25272 0.197544 1.77581 0.549175 1.42417C0.900806 1.07254 1.37772 0.875 1.875 0.875H13.125C13.6223 0.875 14.0992 1.07254 14.4508 1.42417C14.8025 1.77581 15 2.25272 15 2.75V10.25C15 10.7473 14.8025 11.2242 14.4508 11.5758C14.0992 11.9275 13.6223 12.125 13.125 12.125H1.875C1.37772 12.125 0.900806 11.9275 0.549175 11.5758C0.197544 11.2242 0 10.7473 0 10.25V2.75ZM1.875 1.8125C1.62636 1.8125 1.3879 1.91127 1.21209 2.08709C1.03627 2.2629 0.9375 2.50136 0.9375 2.75V3.6875H14.0625V2.75C14.0625 2.50136 13.9637 2.2629 13.7879 2.08709C13.6121 1.91127 13.3736 1.8125 13.125 1.8125H1.875ZM14.0625 5.5625H0.9375V10.25C0.9375 10.4986 1.03627 10.7371 1.21209 10.9129C1.3879 11.0887 1.62636 11.1875 1.875 11.1875H13.125C13.3736 11.1875 13.6121 11.0887 13.7879 10.9129C13.9637 10.7371 14.0625 10.4986 14.0625 10.25V5.5625Z" fill="url(#paint0_linear_1476_250)"/>
<path d="M1.875 8.375C1.875 8.12636 1.97377 7.8879 2.14959 7.71209C2.3254 7.53627 2.56386 7.4375 2.8125 7.4375H3.75C3.99864 7.4375 4.2371 7.53627 4.41291 7.71209C4.58873 7.8879 4.6875 8.12636 4.6875 8.375V9.3125C4.6875 9.56114 4.58873 9.7996 4.41291 9.97541C4.2371 10.1512 3.99864 10.25 3.75 10.25H2.8125C2.56386 10.25 2.3254 10.1512 2.14959 9.97541C1.97377 9.7996 1.875 9.56114 1.875 9.3125V8.375Z" fill="url(#paint1_linear_1476_250)"/>
<defs>
<linearGradient id="paint0_linear_1476_250" x1="7.5" y1="0.875" x2="7.5" y2="12.125" gradientUnits="userSpaceOnUse">
<stop stop-color="#5A8FFF"/>
<stop offset="1" stop-color="#003094"/>
</linearGradient>
<linearGradient id="paint1_linear_1476_250" x1="3.28125" y1="7.4375" x2="3.28125" y2="10.25" gradientUnits="userSpaceOnUse">
<stop stop-color="#5A8FFF"/>
<stop offset="1" stop-color="#003094"/>
</linearGradient>
</defs>
</svg>
