<svg width="15" height="15" viewBox="0 0 15 15" fill="none" xmlns="http://www.w3.org/2000/svg">
<path d="M0.9375 2.34375C0.9375 1.97079 1.08566 1.6131 1.34938 1.34938C1.6131 1.08566 1.97079 0.9375 2.34375 0.9375H5.15625C5.52921 0.9375 5.8869 1.08566 6.15062 1.34938C6.41434 1.6131 6.5625 1.97079 6.5625 2.34375V5.15625C6.5625 5.52921 6.41434 5.8869 6.15062 6.15062C5.8869 6.41434 5.52921 6.5625 5.15625 6.5625H2.34375C1.97079 6.5625 1.6131 6.41434 1.34938 6.15062C1.08566 5.8869 0.9375 5.52921 0.9375 5.15625V2.34375ZM2.34375 1.875C2.21943 1.875 2.1002 1.92439 2.01229 2.01229C1.92439 2.1002 1.875 2.21943 1.875 2.34375V5.15625C1.875 5.28057 1.92439 5.3998 2.01229 5.48771C2.1002 5.57561 2.21943 5.625 2.34375 5.625H5.15625C5.28057 5.625 5.3998 5.57561 5.48771 5.48771C5.57561 5.3998 5.625 5.28057 5.625 5.15625V2.34375C5.625 2.21943 5.57561 2.1002 5.48771 2.01229C5.3998 1.92439 5.28057 1.875 5.15625 1.875H2.34375ZM8.4375 2.34375C8.4375 1.97079 8.58566 1.6131 8.84938 1.34938C9.1131 1.08566 9.47079 0.9375 9.84375 0.9375H12.6562C13.0292 0.9375 13.3869 1.08566 13.6506 1.34938C13.9143 1.6131 14.0625 1.97079 14.0625 2.34375V5.15625C14.0625 5.52921 13.9143 5.8869 13.6506 6.15062C13.3869 6.41434 13.0292 6.5625 12.6562 6.5625H9.84375C9.47079 6.5625 9.1131 6.41434 8.84938 6.15062C8.58566 5.8869 8.4375 5.52921 8.4375 5.15625V2.34375ZM9.84375 1.875C9.71943 1.875 9.6002 1.92439 9.51229 2.01229C9.42439 2.1002 9.375 2.21943 9.375 2.34375V5.15625C9.375 5.28057 9.42439 5.3998 9.51229 5.48771C9.6002 5.57561 9.71943 5.625 9.84375 5.625H12.6562C12.7806 5.625 12.8998 5.57561 12.9877 5.48771C13.0756 5.3998 13.125 5.28057 13.125 5.15625V2.34375C13.125 2.21943 13.0756 2.1002 12.9877 2.01229C12.8998 1.92439 12.7806 1.875 12.6562 1.875H9.84375ZM0.9375 9.84375C0.9375 9.47079 1.08566 9.1131 1.34938 8.84938C1.6131 8.58566 1.97079 8.4375 2.34375 8.4375H5.15625C5.52921 8.4375 5.8869 8.58566 6.15062 8.84938C6.41434 9.1131 6.5625 9.47079 6.5625 9.84375V12.6562C6.5625 13.0292 6.41434 13.3869 6.15062 13.6506C5.8869 13.9143 5.52921 14.0625 5.15625 14.0625H2.34375C1.97079 14.0625 1.6131 13.9143 1.34938 13.6506C1.08566 13.3869 0.9375 13.0292 0.9375 12.6562V9.84375ZM2.34375 9.375C2.21943 9.375 2.1002 9.42439 2.01229 9.51229C1.92439 9.6002 1.875 9.71943 1.875 9.84375V12.6562C1.875 12.7806 1.92439 12.8998 2.01229 12.9877C2.1002 13.0756 2.21943 13.125 2.34375 13.125H5.15625C5.28057 13.125 5.3998 13.0756 5.48771 12.9877C5.57561 12.8998 5.625 12.7806 5.625 12.6562V9.84375C5.625 9.71943 5.57561 9.6002 5.48771 9.51229C5.3998 9.42439 5.28057 9.375 5.15625 9.375H2.34375ZM8.4375 9.84375C8.4375 9.47079 8.58566 9.1131 8.84938 8.84938C9.1131 8.58566 9.47079 8.4375 9.84375 8.4375H12.6562C13.0292 8.4375 13.3869 8.58566 13.6506 8.84938C13.9143 9.1131 14.0625 9.47079 14.0625 9.84375V12.6562C14.0625 13.0292 13.9143 13.3869 13.6506 13.6506C13.3869 13.9143 13.0292 14.0625 12.6562 14.0625H9.84375C9.47079 14.0625 9.1131 13.9143 8.84938 13.6506C8.58566 13.3869 8.4375 13.0292 8.4375 12.6562V9.84375ZM9.84375 9.375C9.71943 9.375 9.6002 9.42439 9.51229 9.51229C9.42439 9.6002 9.375 9.71943 9.375 9.84375V12.6562C9.375 12.7806 9.42439 12.8998 9.51229 12.9877C9.6002 13.0756 9.71943 13.125 9.84375 13.125H12.6562C12.7806 13.125 12.8998 13.0756 12.9877 12.9877C13.0756 12.8998 13.125 12.7806 13.125 12.6562V9.84375C13.125 9.71943 13.0756 9.6002 12.9877 9.51229C12.8998 9.42439 12.7806 9.375 12.6562 9.375H9.84375Z" fill="url(#paint0_linear_1476_261)"/>
<defs>
<linearGradient id="paint0_linear_1476_261" x1="7.5" y1="0.9375" x2="7.5" y2="14.0625" gradientUnits="userSpaceOnUse">
<stop stop-color="#5A8FFF"/>
<stop offset="1" stop-color="#003094"/>
</linearGradient>
</defs>
</svg>
