<svg width="15" height="9" viewBox="0 0 15 9" fill="none" xmlns="http://www.w3.org/2000/svg">
<path fill-rule="evenodd" clip-rule="evenodd" d="M3.41812 0.886736C3.46167 0.843083 3.51339 0.808449 3.57034 0.784818C3.62729 0.761187 3.68834 0.749023 3.75 0.749023C3.81166 0.749023 3.87271 0.761187 3.92966 0.784818C3.98661 0.808449 4.03833 0.843083 4.08188 0.886736L7.5 4.3058L10.9181 0.886736C11.0061 0.798718 11.1255 0.749269 11.25 0.749269C11.3745 0.749269 11.4939 0.798718 11.5819 0.886736C11.6699 0.974755 11.7193 1.09413 11.7193 1.21861C11.7193 1.34309 11.6699 1.46247 11.5819 1.55049L7.83188 5.30049C7.78833 5.34414 7.7366 5.37877 7.67966 5.4024C7.62271 5.42603 7.56166 5.4382 7.5 5.4382C7.43834 5.4382 7.37729 5.42603 7.32034 5.4024C7.26339 5.37877 7.21167 5.34414 7.16812 5.30049L3.41812 1.55049C3.37447 1.50694 3.33984 1.45522 3.31621 1.39827C3.29258 1.34132 3.28041 1.28027 3.28041 1.21861C3.28041 1.15695 3.29258 1.0959 3.31621 1.03895C3.33984 0.982006 3.37447 0.930279 3.41812 0.886736V0.886736ZM0.9375 7.78111C0.9375 7.65679 0.986886 7.53756 1.07479 7.44965C1.1627 7.36175 1.28193 7.31236 1.40625 7.31236H13.5938C13.7181 7.31236 13.8373 7.36175 13.9252 7.44965C14.0131 7.53756 14.0625 7.65679 14.0625 7.78111C14.0625 7.90543 14.0131 8.02466 13.9252 8.11257C13.8373 8.20048 13.7181 8.24986 13.5938 8.24986H1.40625C1.28193 8.24986 1.1627 8.20048 1.07479 8.11257C0.986886 8.02466 0.9375 7.90543 0.9375 7.78111V7.78111Z" fill="url(#paint0_linear_1476_137)"/>
<defs>
<linearGradient id="paint0_linear_1476_137" x1="7.5" y1="0.749023" x2="7.5" y2="8.24986" gradientUnits="userSpaceOnUse">
<stop stop-color="#5A8FFF"/>
<stop offset="1" stop-color="#003094"/>
</linearGradient>
</defs>
</svg>
