<svg width="15" height="15" viewBox="0 0 15 15" fill="none" xmlns="http://www.w3.org/2000/svg">
<path d="M12.8046 0.9375C13.0471 0.9375 13.2798 1.03627 13.4513 1.21209C13.6228 1.3879 13.7192 1.62636 13.7192 1.875V9.375C13.7192 9.62364 13.6228 9.8621 13.4513 10.0379C13.2798 10.2137 13.0471 10.3125 12.8046 10.3125H4.0371C3.552 10.3126 3.0868 10.5102 2.74384 10.8619L0.914612 12.7369V1.875C0.914612 1.62636 1.01097 1.3879 1.1825 1.21209C1.35402 1.03627 1.58665 0.9375 1.82922 0.9375H12.8046ZM1.82922 0C1.34408 0 0.878813 0.197544 0.535767 0.549175C0.192721 0.900806 0 1.37772 0 1.875L0 13.8684C1.92205e-05 13.9612 0.0268828 14.0519 0.0771907 14.1289C0.127499 14.206 0.198989 14.2661 0.282614 14.3015C0.36624 14.337 0.45824 14.3462 0.546971 14.328C0.635702 14.3098 0.717175 14.265 0.781078 14.1994L3.39047 11.5247C3.56195 11.3489 3.79455 11.2501 4.0371 11.25H12.8046C13.2897 11.25 13.755 11.0525 14.098 10.7008C14.4411 10.3492 14.6338 9.87228 14.6338 9.375V1.875C14.6338 1.37772 14.4411 0.900806 14.098 0.549175C13.755 0.197544 13.2897 0 12.8046 0L1.82922 0Z" fill="url(#paint0_linear_1476_112)"/>
<path d="M2.74365 3.28125C2.74365 3.15693 2.79183 3.0377 2.87759 2.94979C2.96336 2.86189 3.07967 2.8125 3.20096 2.8125H11.4325C11.5538 2.8125 11.6701 2.86189 11.7558 2.94979C11.8416 3.0377 11.8898 3.15693 11.8898 3.28125C11.8898 3.40557 11.8416 3.5248 11.7558 3.61271C11.6701 3.70061 11.5538 3.75 11.4325 3.75H3.20096C3.07967 3.75 2.96336 3.70061 2.87759 3.61271C2.79183 3.5248 2.74365 3.40557 2.74365 3.28125ZM2.74365 5.625C2.74365 5.50068 2.79183 5.38145 2.87759 5.29354C2.96336 5.20564 3.07967 5.15625 3.20096 5.15625H11.4325C11.5538 5.15625 11.6701 5.20564 11.7558 5.29354C11.8416 5.38145 11.8898 5.50068 11.8898 5.625C11.8898 5.74932 11.8416 5.86855 11.7558 5.95646C11.6701 6.04436 11.5538 6.09375 11.4325 6.09375H3.20096C3.07967 6.09375 2.96336 6.04436 2.87759 5.95646C2.79183 5.86855 2.74365 5.74932 2.74365 5.625ZM2.74365 7.96875C2.74365 7.84443 2.79183 7.7252 2.87759 7.63729C2.96336 7.54939 3.07967 7.5 3.20096 7.5H7.77402C7.8953 7.5 8.01162 7.54939 8.09738 7.63729C8.18314 7.7252 8.23132 7.84443 8.23132 7.96875C8.23132 8.09307 8.18314 8.2123 8.09738 8.30021C8.01162 8.38811 7.8953 8.4375 7.77402 8.4375H3.20096C3.07967 8.4375 2.96336 8.38811 2.87759 8.30021C2.79183 8.2123 2.74365 8.09307 2.74365 7.96875Z" fill="url(#paint1_linear_1476_112)"/>
<defs>
<linearGradient id="paint0_linear_1476_112" x1="7.31689" y1="0" x2="7.31689" y2="14.3371" gradientUnits="userSpaceOnUse">
<stop stop-color="#5A8FFF"/>
<stop offset="1" stop-color="#003094"/>
</linearGradient>
<linearGradient id="paint1_linear_1476_112" x1="7.31671" y1="2.8125" x2="7.31671" y2="8.4375" gradientUnits="userSpaceOnUse">
<stop stop-color="#5A8FFF"/>
<stop offset="1" stop-color="#003094"/>
</linearGradient>
</defs>
</svg>
