<svg width="12" height="8" viewBox="0 0 12 8" fill="none" xmlns="http://www.w3.org/2000/svg">
<path d="M4.94394 6.99649L0.244339 1.62467C-0.310285 0.992639 0.140469 3.60315e-07 0.982203 3.60315e-07H10.3814C10.5698 -0.000161154 10.7542 0.0539806 10.9126 0.155942C11.071 0.257904 11.1967 0.403363 11.2745 0.574901C11.3524 0.746438 11.3792 0.936783 11.3516 1.12314C11.3241 1.3095 11.2434 1.48397 11.1193 1.62565L6.41967 6.99551C6.32769 7.10076 6.21427 7.18511 6.087 7.24291C5.95974 7.30071 5.82158 7.33061 5.6818 7.33061C5.54203 7.33061 5.40387 7.30071 5.27661 7.24291C5.14934 7.18511 5.03591 7.10174 4.94394 6.99649Z" fill="#B4B4B4"/>
</svg>
